<svg width="895" height="297" viewBox="0 0 895 297" fill="none" xmlns="http://www.w3.org/2000/svg">
<path d="M0.913032 293.5L6.30148 2.52367H46.176L97.5459 238.538L149.275 2.52367H188.79L194.179 293.5H161.489L158.256 82.2728L109.041 293.5H86.0505L37.1953 82.2728L33.9622 293.5H0.913032ZM295.897 296.733C274.822 296.733 258.657 292.542 247.401 284.16C236.145 275.778 228.481 264.043 224.41 248.955C220.339 233.628 218.303 215.787 218.303 195.43V2.52367H257.1V197.226C257.1 209.68 257.938 221.055 259.615 231.353C261.291 241.651 264.883 249.794 270.392 255.781C276.139 261.768 284.641 264.762 295.897 264.762C307.392 264.762 315.894 261.768 321.402 255.781C326.911 249.794 330.503 241.651 332.179 231.353C333.856 221.055 334.694 209.68 334.694 197.226V2.52367H373.131V195.43C373.131 215.787 371.096 233.628 367.025 248.955C362.953 264.043 355.29 275.778 344.034 284.16C333.017 292.542 316.972 296.733 295.897 296.733ZM466.52 296.733C449.756 296.733 435.746 293.141 424.49 285.956C413.474 278.772 405.092 268.833 399.344 256.14C393.596 243.447 390.244 228.719 389.286 211.955L425.209 202.256C425.927 212.554 427.484 222.492 429.879 232.072C432.513 241.651 436.704 249.554 442.452 255.781C448.199 261.768 456.222 264.762 466.52 264.762C477.057 264.762 484.961 261.888 490.229 256.14C495.737 250.153 498.492 241.651 498.492 230.635C498.492 217.463 495.498 206.926 489.511 199.023C483.524 190.88 475.98 182.737 466.879 174.595L418.024 131.487C408.445 123.105 401.38 114.005 396.829 104.186C392.279 94.1273 390.004 81.7938 390.004 67.1851C390.004 45.8708 396.111 29.3462 408.325 17.6113C420.539 5.8765 437.183 0.00906972 458.258 0.00906972C469.753 0.00906972 479.812 1.56573 488.433 4.67906C497.294 7.5529 504.598 12.1031 510.346 18.3298C516.333 24.5565 521.003 32.4595 524.356 42.039C527.948 51.379 530.343 62.3954 531.541 75.0881L497.055 84.4281C496.336 74.8487 494.899 66.1074 492.744 58.2043C490.588 50.0618 486.757 43.5956 481.248 38.8059C475.98 33.7767 468.316 31.2621 458.258 31.2621C448.199 31.2621 440.296 34.0162 434.549 39.5244C429.04 44.7931 426.286 52.6961 426.286 63.2336C426.286 72.0946 427.723 79.3989 430.597 85.1466C433.71 90.8943 438.62 96.7617 445.325 102.749L494.54 145.856C505.556 155.436 515.256 166.931 523.638 180.343C532.02 193.514 536.211 209.201 536.211 227.402C536.211 241.771 533.217 254.224 527.23 264.762C521.243 275.06 512.98 282.963 502.443 288.471C492.145 293.979 480.171 296.733 466.52 296.733ZM551.893 293.5V2.52367H591.768V293.5H551.893ZM605.076 293.5L666.864 2.52367H706.02L768.167 293.5H729.729L716.437 220.217H657.165L643.155 293.5H605.076ZM662.553 191.119H711.049L686.621 60.0005L662.553 191.119ZM779.729 293.5V2.52367H820.322V264.402H894.683V293.5H779.729Z" fill="#E7E6FF"/>
</svg>
