<svg width="1370" height="943" viewBox="0 0 1370 943" fill="none" xmlns="http://www.w3.org/2000/svg">
<g filter="url(#filter0_i_397_5)">
<path fill-rule="evenodd" clip-rule="evenodd" d="M361.257 515.36C299.56 547.983 246.552 553.571 241.49 517.393C235.699 476.01 209.131 504.154 189.343 525.115C174.103 541.259 162.886 553.142 168.278 525.723C179.602 468.151 142.189 519.344 91.7825 588.314C73.2162 613.718 52.8873 641.534 32.5817 667.215C-42.8521 762.62 16.9831 486.864 191.111 286.954C365.24 87.0452 574.398 131.012 496.676 155.258C465.393 165.018 508.622 167.687 576.239 171.863C648.699 176.337 749.166 182.541 815.957 201.052C829.57 203.933 842.676 206.849 855.102 209.614C929.803 226.238 979.95 237.397 968.34 202.361C957.981 171.096 976.609 181.988 999.136 195.16C1039.22 218.599 1091.65 249.257 1015.09 62.4684C895.497 -229.293 1400.7 598.842 1368.36 678.568C1353.97 714.046 1312.27 681.259 1236.52 621.702C1142.04 547.423 994.613 431.504 781.145 354.443C656.379 309.403 575.282 326.752 524.113 373.171C523.921 455.373 557.965 520.927 609.886 528.842C638.651 533.227 659.728 521.743 683.08 509.02C709.743 494.493 739.37 478.351 786.79 482.368C875.742 489.904 881.402 572.647 855.826 616.591C848.322 629.484 835.023 643.498 820.956 658.32C787.079 694.017 748.757 734.399 776.244 775.085C670.725 818.769 590.593 827.105 532.147 809.808C568.692 893.713 576.463 963.968 485.406 935.706C373.608 901.006 336.349 699.328 361.257 515.36Z" fill="#131313"/>
</g>
<defs>
<filter id="filter0_i_397_5" x="0.5625" y="0.458984" width="1369.29" height="945.604" filterUnits="userSpaceOnUse" color-interpolation-filters="sRGB">
<feFlood flood-opacity="0" result="BackgroundImageFix"/>
<feBlend mode="normal" in="SourceGraphic" in2="BackgroundImageFix" result="shape"/>
<feColorMatrix in="SourceAlpha" type="matrix" values="0 0 0 0 0 0 0 0 0 0 0 0 0 0 0 0 0 0 127 0" result="hardAlpha"/>
<feOffset dy="4"/>
<feGaussianBlur stdDeviation="24.64"/>
<feComposite in2="hardAlpha" operator="arithmetic" k2="-1" k3="1"/>
<feColorMatrix type="matrix" values="0 0 0 0 0.282353 0 0 0 0 0.266667 0 0 0 0 0.996078 0 0 0 1 0"/>
<feBlend mode="normal" in2="shape" result="effect1_innerShadow_397_5"/>
</filter>
</defs>
</svg>
