<svg width="1142" height="917" viewBox="0 0 1142 917" fill="none" xmlns="http://www.w3.org/2000/svg">
<g filter="url(#filter0_i_397_12)">
<path fill-rule="evenodd" clip-rule="evenodd" d="M442.952 352.207C386.09 351.006 348.589 333.751 357.47 301.833C369.514 258.55 331.248 274.899 302.747 287.075C280.797 296.453 264.64 303.356 281.719 278.637C317.581 226.737 258.735 261.156 179.452 307.528C150.25 324.608 118.275 343.31 87.2387 359.918C-28.0581 421.614 149.231 175.422 406.661 53.0366C664.091 -69.3486 851.435 63.7261 764.407 54.2873C729.38 50.4882 770.853 71.6653 835.725 104.79C932.027 153.964 1079.89 229.467 1105.59 288.675C1121.24 324.721 1097.75 312.155 1053.13 288.288C991.167 255.138 888.449 200.188 793.237 223.41C868.062 321.446 986.393 506.181 942.627 571.769C885.743 657.014 998.087 643.689 1109.82 630.437C1111.64 630.221 1113.45 630.005 1115.27 629.79C1171.5 623.132 1127.39 651.049 1076.53 683.239C1024.74 716.023 965.943 753.238 998.99 762.879C1064.49 781.985 578.878 877.037 743.282 788.815C903.348 702.922 852.747 500.092 814.046 344.964C812.997 340.759 811.957 336.59 810.93 332.459C790.12 248.751 791.153 282.356 793.338 353.415C795.239 415.252 798.013 505.452 788.022 571.388C773.764 665.49 622.325 703.559 480.911 739.108C409.374 757.091 340.402 774.429 293.052 798.05C208.315 840.321 279.142 844.688 378.947 850.842C445.157 854.924 524.121 859.793 578.878 877.037C716.175 920.272 80.3132 927.417 6.45371 899.689C-29.9215 886.033 101.102 819.393 260.008 738.571C423.758 655.285 617.117 556.94 687.412 485.998C793.644 378.788 588.781 352.358 459.172 352.127C453.934 352.282 448.823 352.314 443.857 352.224C443.53 352.229 443.202 352.234 442.876 352.239L442.952 352.207Z" fill="#131313"/>
</g>
<defs>
<filter id="filter0_i_397_12" x="0.332031" y="0.982422" width="1141.19" height="919.166" filterUnits="userSpaceOnUse" color-interpolation-filters="sRGB">
<feFlood flood-opacity="0" result="BackgroundImageFix"/>
<feBlend mode="normal" in="SourceGraphic" in2="BackgroundImageFix" result="shape"/>
<feColorMatrix in="SourceAlpha" type="matrix" values="0 0 0 0 0 0 0 0 0 0 0 0 0 0 0 0 0 0 127 0" result="hardAlpha"/>
<feOffset dy="4"/>
<feGaussianBlur stdDeviation="24.64"/>
<feComposite in2="hardAlpha" operator="arithmetic" k2="-1" k3="1"/>
<feColorMatrix type="matrix" values="0 0 0 0 0.282353 0 0 0 0 0.266667 0 0 0 0 0.996078 0 0 0 1 0"/>
<feBlend mode="normal" in2="shape" result="effect1_innerShadow_397_12"/>
</filter>
</defs>
</svg>
