<svg width="18" height="18" viewBox="0 0 18 18" fill="none" xmlns="http://www.w3.org/2000/svg">
<path d="M5.13589 17.1223C4.80542 17.1223 4.54808 17.0167 4.36388 16.8054C4.1851 16.5941 4.09571 16.307 4.09571 15.944V13.9449H3.76253C2.97698 13.9449 2.30248 13.7932 1.73905 13.4898C1.18104 13.1865 0.750339 12.753 0.446953 12.1896C0.148984 11.6208 0 10.9327 0 10.1255V3.81941C0 3.01219 0.148984 2.32686 0.446953 1.76343C0.744921 1.19458 1.17562 0.758465 1.73905 0.455079C2.3079 0.151693 3.00135 0 3.81941 0H14.1806C14.9986 0 15.6894 0.151693 16.2528 0.455079C16.8217 0.758465 17.2551 1.19458 17.553 1.76343C17.851 2.32686 18 3.01219 18 3.81941V10.1255C18 10.9327 17.851 11.6208 17.553 12.1896C17.2551 12.753 16.8217 13.1865 16.2528 13.4898C15.6894 13.7932 14.9986 13.9449 14.1806 13.9449H9.26411L6.48488 16.4072C6.20858 16.651 5.9702 16.8298 5.76975 16.9436C5.57472 17.0628 5.36343 17.1223 5.13589 17.1223ZM5.52596 15.3264L8.11016 12.7747C8.2781 12.6014 8.43521 12.4876 8.58149 12.4334C8.73318 12.3738 8.93363 12.344 9.18284 12.344H14.14C14.9038 12.344 15.47 12.1544 15.8384 11.7752C16.2122 11.3905 16.3991 10.8217 16.3991 10.0686V3.86817C16.3991 3.12054 16.2122 2.55711 15.8384 2.17788C15.47 1.79323 14.9038 1.6009 14.14 1.6009H3.86005C3.09616 1.6009 2.52731 1.79323 2.1535 2.17788C1.7851 2.55711 1.6009 3.12054 1.6009 3.86817V10.0686C1.6009 10.8217 1.7851 11.3905 2.1535 11.7752C2.52731 12.1544 3.09616 12.344 3.86005 12.344H4.86772C5.09526 12.344 5.2605 12.3955 5.36343 12.4984C5.47178 12.5959 5.52596 12.7666 5.52596 13.0104V15.3264ZM4.86772 4.83521C4.72686 4.83521 4.60768 4.78646 4.51016 4.68894C4.41264 4.586 4.36388 4.46411 4.36388 4.32325C4.36388 4.18781 4.40993 4.07133 4.50203 3.97381C4.59955 3.8763 4.72144 3.82754 4.86772 3.82754H13.0429C13.1892 3.82754 13.3111 3.8763 13.4086 3.97381C13.5061 4.07133 13.5549 4.18781 13.5549 4.32325C13.5549 4.46411 13.5061 4.586 13.4086 4.68894C13.3111 4.78646 13.1892 4.83521 13.0429 4.83521H4.86772ZM4.86772 7.41941C4.72686 7.41941 4.60768 7.37065 4.51016 7.27314C4.41264 7.17562 4.36388 7.05372 4.36388 6.90745C4.36388 6.77743 4.40993 6.66095 4.50203 6.55801C4.59955 6.45508 4.72144 6.40361 4.86772 6.40361H13.0429C13.1892 6.40361 13.3111 6.45508 13.4086 6.55801C13.5061 6.66095 13.5549 6.77743 13.5549 6.90745C13.5549 7.05372 13.5061 7.17562 13.4086 7.27314C13.3111 7.37065 13.1892 7.41941 13.0429 7.41941H4.86772ZM4.86772 10.0117C4.72686 10.0117 4.60768 9.96298 4.51016 9.86546C4.41264 9.76795 4.36388 9.64876 4.36388 9.5079C4.36388 9.36704 4.40993 9.24786 4.50203 9.15034C4.59955 9.0474 4.72144 8.99594 4.86772 8.99594H10.1905C10.3314 8.99594 10.4506 9.0474 10.5481 9.15034C10.651 9.24786 10.7025 9.36704 10.7025 9.5079C10.7025 9.64876 10.651 9.76795 10.5481 9.86546C10.4506 9.96298 10.3314 10.0117 10.1905 10.0117H4.86772Z" fill="#F3F3F3"/>
</svg>
