<svg width="1123" height="1044" viewBox="0 0 1123 1044" fill="none" xmlns="http://www.w3.org/2000/svg">
<path fill-rule="evenodd" clip-rule="evenodd" d="M600.94 1043.08C888.979 1043.08 1122.48 809.58 1122.48 521.541C1122.48 233.502 888.979 0 600.94 0C312.901 0 79.3994 233.502 79.3994 521.541C79.3994 589.76 92.4971 654.919 116.315 714.642L141.333 736.076L141.654 735.891L120.708 628.572L148.585 612.477L214.629 726.869L195.564 737.876L144.597 649.599L144.276 649.784L163.521 756.376L147.019 765.904L134.671 755.456C151.747 789.427 172.426 821.275 196.206 850.498L184.026 773.644L205.335 761.341L315.437 850.296L293.969 862.691L265.752 838.608L220.092 864.97L223.057 880.999C318.064 980.845 452.234 1043.08 600.94 1043.08ZM600.94 625.849C543.332 625.849 496.632 579.149 496.632 521.541C496.632 463.933 543.332 417.233 600.94 417.233C658.548 417.233 705.248 463.933 705.248 521.541C705.248 579.149 658.548 625.849 600.94 625.849ZM191.309 587.81L171.282 599.373L213.554 672.59C217.809 679.96 222.631 685.721 228.019 689.873C233.407 694.025 239.209 696.799 245.426 698.194C251.688 699.42 258.228 699.276 265.043 697.762C271.859 696.248 278.792 693.456 285.842 689.386C292.891 685.316 298.775 680.708 303.495 675.562C308.214 670.417 311.555 664.856 313.517 658.882C315.524 652.738 316.077 646.296 315.175 639.553C314.273 632.811 311.694 625.755 307.439 618.385L265.167 545.168L245.141 556.731L283.62 623.379C285.84 627.224 287.877 631.246 289.732 635.445C291.693 639.581 292.691 643.776 292.725 648.029C292.804 652.113 291.614 656.218 289.154 660.344C286.801 664.408 282.367 668.321 275.852 672.083C269.336 675.845 263.677 677.759 258.874 677.826C254.178 677.832 250.027 676.81 246.423 674.761C242.864 672.543 239.731 669.582 237.022 665.877C234.42 662.11 232.009 658.304 229.789 654.459L191.309 587.81ZM354.071 610.474C350.788 608.24 347.882 604.933 345.353 600.554L325.327 612.117C329.504 619.104 334.384 624.475 339.969 628.229C345.493 631.876 351.347 634.121 357.531 634.966C363.715 635.81 370.153 635.368 376.845 633.641C383.538 631.913 390.142 629.168 396.657 625.406C402.318 622.138 407.471 618.237 412.117 613.704C416.824 609.277 420.482 604.388 423.089 599.038C425.696 593.688 426.987 588.029 426.96 582.063C426.979 575.929 425.138 569.657 421.438 563.249C419.711 560.258 417.504 557.545 414.816 555.109C412.235 552.612 409.243 550.637 405.841 549.183C402.483 547.562 398.83 546.538 394.882 546.112C390.933 545.685 386.75 545.964 382.334 546.948C380.592 547.384 377.712 548.192 373.694 549.372C369.721 550.385 365.641 551.458 361.455 552.594C357.268 553.729 353.464 554.786 350.042 555.765C346.664 556.576 344.731 557.051 344.242 557.191C339.505 558.359 335.208 558.562 331.349 557.799C327.536 556.867 324.458 554.372 322.114 550.313C320.449 547.43 319.703 544.656 319.875 541.994C320.153 539.27 320.999 536.788 322.411 534.548C323.762 532.201 325.543 530.105 327.753 528.26C329.901 526.307 332.15 524.653 334.5 523.296C341.443 519.288 348.051 517.538 354.325 518.045C360.538 518.446 366.039 522.177 370.828 529.238L390.854 517.676C387.401 511.695 383.204 507.139 378.265 504.01C373.263 500.774 367.839 498.779 361.992 498.025C356.252 497.209 350.28 497.595 344.076 499.183C337.917 500.602 331.847 503.039 325.866 506.492C320.739 509.452 316.067 513.076 311.848 517.362C307.568 521.542 304.254 526.162 301.905 531.22C299.557 536.279 298.388 541.654 298.398 547.344C298.453 552.866 300.145 558.511 303.475 564.279C305.202 567.27 307.272 569.991 309.684 572.443C312.204 574.834 315.165 576.756 318.567 578.209C321.97 579.663 325.89 580.532 330.327 580.819C334.81 580.936 339.878 580.218 345.531 578.663C354.668 576.236 362.308 574.175 368.45 572.48C374.637 570.617 380.192 569.261 385.114 568.413C387.957 567.911 390.957 568.173 394.113 569.199C397.314 570.057 400.178 572.675 402.706 577.054C403.94 579.19 404.746 581.573 405.125 584.203C405.442 586.725 405.102 589.343 404.104 592.055C403.107 594.767 401.367 597.551 398.887 600.408C396.344 603.157 392.883 605.796 388.504 608.325C384.446 610.668 380.407 612.43 376.389 613.61C372.416 614.622 368.54 614.938 364.76 614.557C360.918 614.069 357.355 612.708 354.071 610.474ZM280.313 718.053L260.286 729.615L326.331 844.007L404.514 798.867L394.525 781.565L336.367 815.142L280.313 718.053Z" fill="white"/>
<path d="M251.678 826.44L216.751 846.605L205.657 787.43L206.138 787.153L251.678 826.44Z" fill="white"/>
<path d="M624.521 520.994C624.521 533.715 614.209 544.027 601.488 544.027C588.767 544.027 578.455 533.715 578.455 520.994C578.455 508.273 588.767 497.961 601.488 497.961C614.209 497.961 624.521 508.273 624.521 520.994Z" fill="white"/>
<path d="M205.657 787.43L206.138 787.153L251.678 826.44L216.751 846.605L205.657 787.43Z" fill="white"/>
<path fill-rule="evenodd" clip-rule="evenodd" d="M14.9332 655.154C8.07338 659.114 3.06785 665.637 1.01774 673.289C-1.03237 680.94 0.0408828 689.092 4.00138 695.952L70.0456 810.344C70.7119 811.498 71.4437 812.59 72.2334 813.62L108.602 876.385L149.014 946.38C157.261 960.665 175.527 965.559 189.812 957.312L195.008 954.312L195.22 954.391L241.015 927.843L240.718 927.921L241.772 927.313C252.725 920.989 258.507 908.452 256.207 896.015L253.297 880.285L262.411 875.023L274.579 885.408C284.199 893.618 297.948 894.879 308.901 888.556L330.369 876.161C332.216 875.095 333.922 873.847 335.471 872.446C337.449 871.808 339.39 870.953 341.263 869.872L419.447 824.732C433.731 816.485 438.626 798.219 430.378 783.934L420.388 766.631C412.141 752.346 393.875 747.452 379.59 755.699L347.298 774.343L309.836 709.457C315.547 705.415 320.812 700.865 325.504 695.749C332.775 687.821 338.465 678.633 341.891 668.2L341.905 668.157C342.523 666.265 343.059 664.361 343.513 662.449C346.753 663.384 350.081 664.092 353.489 664.557C363.909 665.98 374.266 665.151 384.31 662.558C393.838 660.098 402.94 656.265 411.59 651.271C419.311 646.813 426.393 641.47 432.781 635.267C439.808 628.617 445.653 620.909 449.936 612.121C454.539 602.675 456.857 592.529 456.826 582.033C456.838 569.681 453.076 558.316 447.302 548.316C444.028 542.645 439.942 537.638 435.22 533.297C430.747 529.043 425.714 525.59 420.253 522.94C421.455 516.241 420.387 509.098 416.718 502.743C411.31 493.376 404.004 484.993 394.369 478.858C385.749 473.305 376.2 469.772 366.002 468.428C356.188 467.061 346.447 467.79 337.02 470.16C327.847 472.313 319.139 475.889 310.932 480.627C303.522 484.905 296.787 490.122 290.764 496.207C284.569 502.301 279.396 509.285 275.527 517.156C267.487 514.187 258.235 514.683 250.233 519.303L230.207 530.865C215.922 539.113 211.027 557.379 219.275 571.663L257.754 638.312C259.124 640.684 260.419 643.177 261.634 645.795C261.41 645.93 261.172 646.071 260.918 646.218C260.626 646.386 260.351 646.541 260.091 646.682C258.509 644.297 257.03 641.911 255.653 639.525L217.173 572.877C208.926 558.592 190.66 553.698 176.375 561.945L156.348 573.507C152.378 575.8 149.028 578.951 146.514 582.682C142.025 582.994 137.621 584.319 133.651 586.612L105.774 602.707C94.7273 609.084 88.9504 621.774 91.3938 634.293L96.0043 657.915L77.4946 642.058C67.8744 633.816 54.1013 632.54 43.1306 638.874L14.9332 655.154ZM114.976 784.403L95.9105 795.41L29.8663 681.018L58.0637 664.739L141.333 736.076L141.654 735.891L120.708 628.572L148.585 612.477L214.629 726.869L195.564 737.876L144.597 649.599L144.276 649.784L163.521 756.376L147.019 765.904L64.3293 695.941L64.0089 696.126L114.976 784.403ZM236.011 747.73C236.063 747.677 236.114 747.624 236.166 747.571L236.474 748.104L236.011 747.73ZM404.514 798.867L326.331 844.007L260.286 729.615L280.313 718.053L336.367 815.142L394.525 781.565L404.514 798.867ZM245.141 556.731L265.167 545.168L307.439 618.385C308.085 619.504 308.691 620.615 309.26 621.72C309.889 622.941 310.471 624.154 311.006 625.358C311.091 625.551 311.176 625.744 311.259 625.936C313.279 630.609 314.585 635.148 315.175 639.553C315.512 642.076 315.645 644.557 315.575 646.996C315.57 647.192 315.563 647.389 315.554 647.585C315.551 647.672 315.547 647.758 315.543 647.845C315.36 651.625 314.686 655.304 313.517 658.882C312.137 663.082 310.075 667.078 307.333 670.869C307.28 670.942 307.227 671.015 307.174 671.087C306.058 672.612 304.832 674.104 303.495 675.562C298.97 680.496 293.374 684.934 286.708 688.879C286.421 689.049 286.133 689.218 285.842 689.386C279.86 692.839 273.962 695.372 268.149 696.986C267.111 697.274 266.076 697.533 265.043 697.762C263.061 698.203 261.101 698.527 259.166 698.735C259.121 698.74 259.076 698.745 259.031 698.75C258.987 698.754 258.942 698.759 258.898 698.763C257.096 698.948 255.315 699.032 253.554 699.015C250.795 698.988 248.086 698.715 245.426 698.194C241.889 697.4 238.484 696.159 235.215 694.473C234.944 694.333 234.675 694.191 234.406 694.045C232.216 692.857 230.087 691.467 228.019 689.873C227.858 689.749 227.698 689.624 227.538 689.498C224.195 686.845 221.072 683.565 218.171 679.658C218.047 679.491 217.923 679.323 217.8 679.154C216.327 677.129 214.912 674.942 213.554 672.59L171.282 599.373L191.309 587.81L229.789 654.459C231.043 656.631 232.357 658.791 233.734 660.939C234.793 662.592 235.89 664.238 237.022 665.877C238.586 668.016 240.29 669.907 242.138 671.551C243.49 672.753 244.919 673.824 246.423 674.761C247.474 675.359 248.571 675.869 249.715 676.291C249.907 676.362 250.1 676.431 250.294 676.497C252.916 677.387 255.777 677.83 258.874 677.826C259.435 677.818 260.007 677.785 260.592 677.727C265.01 677.286 270.098 675.405 275.852 672.083C281.667 668.725 285.823 665.247 288.323 661.648C288.624 661.215 288.901 660.781 289.154 660.344C290.821 657.548 291.904 654.761 292.405 651.984L292.411 651.951C292.645 650.641 292.75 649.334 292.725 648.029C292.71 646.22 292.52 644.421 292.157 642.632C291.666 640.217 290.859 637.822 289.732 635.445C288.925 633.618 288.083 631.825 287.207 630.066C286.069 627.78 284.874 625.552 283.62 623.379L245.141 556.731ZM339.969 628.229C334.384 624.475 329.504 619.104 325.327 612.117L345.353 600.554C347.094 603.569 349.013 606.076 351.112 608.074C351.559 608.5 352.014 608.903 352.478 609.282C352.526 609.322 352.574 609.361 352.623 609.4C353.097 609.782 353.58 610.14 354.071 610.474C356.091 611.848 358.215 612.892 360.446 613.605C361.842 614.052 363.281 614.369 364.76 614.557C367.101 614.793 369.478 614.761 371.894 614.463C373.378 614.28 374.877 613.995 376.389 613.61C379.981 612.555 383.589 611.035 387.213 609.05C387.643 608.815 388.074 608.573 388.504 608.325C392.883 605.796 396.344 603.157 398.887 600.408C398.927 600.361 398.966 600.315 399.006 600.269C399.082 600.18 399.158 600.092 399.232 600.003C401.529 597.288 403.154 594.639 404.104 592.055C404.348 591.393 404.551 590.736 404.716 590.085C405.228 588.07 405.365 586.109 405.125 584.203C405.024 583.505 404.893 582.825 404.732 582.162C404.719 582.106 404.705 582.051 404.691 581.996C404.246 580.223 403.585 578.576 402.706 577.054C402.253 576.269 401.788 575.54 401.313 574.868C400.633 573.907 399.932 573.062 399.209 572.332C399.028 572.15 398.845 571.974 398.661 571.806C398.052 571.249 397.427 570.772 396.788 570.374C396.48 570.183 396.168 570.01 395.853 569.856C395.284 569.576 394.705 569.358 394.113 569.199C393.551 569.016 392.993 568.858 392.441 568.723C390.798 568.324 389.2 568.139 387.645 568.168C387.45 568.172 387.256 568.179 387.063 568.189C386.405 568.225 385.756 568.3 385.114 568.413C383.36 568.715 381.525 569.082 379.61 569.513C379.364 569.568 379.116 569.625 378.867 569.682C375.62 570.433 372.149 571.366 368.45 572.48C367.963 572.614 367.465 572.751 366.958 572.89C364.9 573.456 362.686 574.059 360.316 574.701C358.871 575.092 357.367 575.498 355.806 575.918L354.934 576.152C353.36 576.575 351.729 577.011 350.04 577.462L349.291 577.662C348.067 577.988 346.814 578.322 345.531 578.663C341.337 579.816 337.464 580.509 333.914 580.742C332.679 580.823 331.484 580.849 330.327 580.819C329.137 580.742 327.983 580.623 326.867 580.462C326.525 580.413 326.186 580.359 325.851 580.302C324.563 580.083 323.327 579.804 322.142 579.468C320.971 579.136 319.851 578.746 318.781 578.3C318.754 578.288 318.726 578.277 318.699 578.265C318.655 578.247 318.611 578.228 318.567 578.209C315.165 576.756 312.204 574.834 309.684 572.443C307.272 569.991 305.202 567.27 303.475 564.279C303.004 563.462 302.564 562.647 302.158 561.835C299.698 556.914 298.445 552.084 298.398 547.344C298.395 545.988 298.459 544.649 298.591 543.328C298.681 542.425 298.802 541.531 298.955 540.645C298.999 540.385 299.047 540.127 299.097 539.869C299.675 536.89 300.611 534.007 301.905 531.22C302.933 529.008 304.144 526.879 305.54 524.835C305.688 524.619 305.837 524.404 305.989 524.19C307.684 521.797 309.638 519.521 311.848 517.362C312.893 516.301 313.965 515.28 315.065 514.299C315.262 514.124 315.459 513.95 315.658 513.778C318.599 511.22 321.735 508.947 325.067 506.96C325.332 506.802 325.599 506.646 325.866 506.492C331.847 503.039 337.917 500.602 344.076 499.183C348.026 498.172 351.88 497.648 355.642 497.611C355.754 497.61 355.866 497.609 355.977 497.609C358.009 497.605 360.015 497.744 361.992 498.025C362.826 498.132 363.651 498.265 364.468 498.423C369.377 499.373 373.977 501.236 378.265 504.01C382.751 506.852 386.624 510.871 389.884 516.066C389.921 516.124 389.957 516.182 389.993 516.24C390.285 516.709 390.572 517.188 390.854 517.676L370.828 529.238C369.747 527.645 368.629 526.221 367.476 524.966C367.028 524.479 366.574 524.017 366.115 523.581C366.063 523.532 366.011 523.483 365.959 523.434C365.904 523.382 365.849 523.332 365.794 523.281C364.957 522.511 364.101 521.826 363.228 521.225C361.947 520.343 360.628 519.643 359.27 519.124C359.182 519.09 359.094 519.058 359.006 519.026C357.493 518.476 355.934 518.149 354.325 518.045C352.554 517.902 350.756 517.938 348.931 518.155C348.816 518.169 348.7 518.183 348.584 518.198C348.543 518.204 348.503 518.209 348.462 518.214C344.219 518.788 339.833 520.33 335.304 522.841C335.036 522.989 334.769 523.141 334.5 523.296C332.15 524.653 329.901 526.307 327.753 528.26C326.867 529 326.049 529.78 325.301 530.6C325.216 530.693 325.133 530.786 325.05 530.88C324.038 532.026 323.16 533.249 322.411 534.548C321.399 536.153 320.677 537.882 320.247 539.736C320.077 540.469 319.954 541.222 319.875 541.994C319.767 543.66 320.018 545.369 320.63 547.122C320.651 547.183 320.673 547.244 320.695 547.305C321.054 548.294 321.528 549.297 322.114 550.313C322.598 551.151 323.112 551.922 323.658 552.626C324.409 553.594 325.219 554.437 326.088 555.154C326.302 555.33 326.52 555.499 326.741 555.66C327.111 555.93 327.49 556.178 327.88 556.405C328.838 556.962 329.855 557.39 330.934 557.69C331.071 557.728 331.21 557.765 331.349 557.799C331.501 557.829 331.653 557.857 331.806 557.884C334.306 558.325 336.988 558.368 339.851 558.013C339.913 558.005 339.976 557.997 340.039 557.989C341.399 557.812 342.801 557.546 344.242 557.191C344.731 557.051 346.664 556.576 350.042 555.765C351.545 555.335 353.122 554.89 354.773 554.429C356.88 553.842 359.108 553.23 361.455 552.594C361.766 552.509 362.075 552.425 362.385 552.341L362.857 552.214C366.553 551.218 370.166 550.271 373.694 549.372C376.949 548.416 379.456 547.704 381.218 547.236L381.366 547.197L381.454 547.173C381.773 547.089 382.067 547.014 382.334 546.948C386.75 545.964 390.933 545.685 394.882 546.112C396.579 546.295 398.22 546.588 399.808 546.992C399.858 547.005 399.908 547.017 399.958 547.03L400.045 547.053C400.436 547.156 400.823 547.265 401.206 547.38C402.809 547.864 404.354 548.465 405.841 549.183C409.243 550.637 412.235 552.612 414.816 555.109C417.504 557.545 419.711 560.258 421.438 563.249C421.877 564.009 422.289 564.768 422.676 565.524C425.37 570.796 426.793 575.974 426.946 581.059C426.95 581.192 426.953 581.325 426.955 581.458C426.958 581.66 426.961 581.862 426.96 582.063C426.987 588.029 425.696 593.688 423.089 599.038C420.667 604.009 417.337 608.581 413.102 612.754C412.963 612.892 412.823 613.028 412.682 613.164C412.495 613.345 412.307 613.525 412.117 613.704C407.823 617.895 403.093 621.544 397.931 624.654C397.509 624.908 397.085 625.159 396.657 625.406C391.768 628.229 386.827 630.48 381.837 632.157C381.712 632.199 381.587 632.241 381.462 632.282C381.364 632.315 381.267 632.346 381.169 632.378C379.732 632.846 378.291 633.267 376.845 633.641C371.984 634.896 367.255 635.472 362.661 635.37C362.48 635.366 362.299 635.361 362.118 635.354C360.574 635.302 359.045 635.172 357.531 634.966C354.651 634.572 351.842 633.875 349.105 632.874C347.35 632.232 345.624 631.465 343.927 630.573C343.071 630.122 342.222 629.64 341.38 629.126C340.907 628.837 340.438 628.538 339.969 628.229ZM157.126 794.718L157.02 794.047C156.942 794.074 156.864 794.102 156.786 794.129L157.126 794.718ZM108.834 817.055L128.861 805.493L194.905 919.885L174.878 931.447L108.834 817.055ZM184.026 773.644L205.335 761.341L315.437 850.296L293.969 862.691L265.752 838.608L220.092 864.97L226.839 901.448L206.171 913.38L184.026 773.644ZM264.419 643.825C264.416 643.828 264.411 643.832 264.406 643.837C264.421 643.823 264.428 643.816 264.428 643.816C264.428 643.816 264.425 643.819 264.419 643.825Z" fill="white"/>
</svg>
