<svg width="1123" height="1044" viewBox="0 0 1123 1044" fill="none" xmlns="http://www.w3.org/2000/svg">
<mask id="path-1-inside-1_235_2464" fill="white">
<path fill-rule="evenodd" clip-rule="evenodd" d="M600.939 1043.08C888.978 1043.08 1122.48 809.58 1122.48 521.541C1122.48 233.502 888.978 0 600.939 0C312.9 0 79.3984 233.502 79.3984 521.541C79.3984 589.76 92.4962 654.919 116.314 714.642L141.332 736.076L141.653 735.891L120.707 628.572L148.584 612.477L214.628 726.869L195.563 737.876L144.596 649.599L144.275 649.784L163.52 756.376L147.018 765.904L134.67 755.456C151.746 789.427 172.425 821.275 196.205 850.498L184.025 773.644L205.334 761.341L315.436 850.296L293.968 862.691L265.751 838.608L220.091 864.97L223.056 880.999C318.063 980.845 452.233 1043.08 600.939 1043.08ZM600.939 625.849C543.331 625.849 496.631 579.149 496.631 521.541C496.631 463.933 543.331 417.233 600.939 417.233C658.547 417.233 705.247 463.933 705.247 521.541C705.247 579.149 658.547 625.849 600.939 625.849ZM191.308 587.81L171.282 599.373L213.553 672.59C217.808 679.96 222.63 685.721 228.018 689.873C233.406 694.025 239.208 696.799 245.425 698.194C251.687 699.42 258.227 699.276 265.043 697.762C271.858 696.248 278.791 693.456 285.841 689.386C292.89 685.316 298.774 680.708 303.494 675.562C308.213 670.417 311.554 664.856 313.516 658.882C315.523 652.738 316.076 646.296 315.174 639.553C314.272 632.811 311.693 625.755 307.438 618.385L265.166 545.168L245.14 556.731L283.619 623.379C285.839 627.224 287.876 631.246 289.731 635.445C291.692 639.581 292.69 643.776 292.724 648.029C292.803 652.113 291.613 656.218 289.153 660.344C286.8 664.408 282.366 668.321 275.851 672.083C269.335 675.845 263.676 677.759 258.873 677.826C254.177 677.832 250.026 676.81 246.422 674.761C242.863 672.543 239.73 669.582 237.021 665.877C234.419 662.11 232.008 658.304 229.788 654.459L191.308 587.81ZM354.07 610.474C350.787 608.24 347.881 604.933 345.352 600.554L325.326 612.117C329.503 619.104 334.383 624.475 339.969 628.229C345.492 631.876 351.346 634.121 357.53 634.966C363.714 635.81 370.152 635.368 376.845 633.641C383.537 631.913 390.141 629.168 396.656 625.406C402.317 622.138 407.471 618.237 412.116 613.704C416.823 609.277 420.481 604.388 423.088 599.038C425.695 593.688 426.986 588.029 426.959 582.063C426.978 575.929 425.137 569.657 421.437 563.249C419.71 560.258 417.503 557.545 414.815 555.109C412.234 552.612 409.242 550.637 405.84 549.183C402.482 547.562 398.829 546.538 394.881 546.112C390.932 545.685 386.749 545.964 382.333 546.948C380.591 547.384 377.711 548.192 373.693 549.372C369.72 550.385 365.64 551.458 361.454 552.594C357.267 553.729 353.463 554.786 350.041 555.765C346.663 556.576 344.73 557.051 344.241 557.191C339.504 558.359 335.207 558.562 331.348 557.799C327.535 556.867 324.457 554.372 322.113 550.313C320.449 547.43 319.702 544.656 319.874 541.994C320.152 539.27 320.998 536.788 322.41 534.548C323.761 532.201 325.542 530.105 327.752 528.26C329.9 526.307 332.149 524.653 334.499 523.296C341.442 519.288 348.05 517.538 354.324 518.045C360.537 518.446 366.038 522.177 370.827 529.238L390.853 517.676C387.4 511.695 383.203 507.139 378.264 504.01C373.262 500.774 367.838 498.779 361.991 498.025C356.251 497.209 350.279 497.595 344.075 499.183C337.916 500.602 331.846 503.039 325.865 506.492C320.738 509.452 316.066 513.076 311.847 517.362C307.567 521.542 304.253 526.162 301.905 531.22C299.556 536.279 298.387 541.654 298.397 547.344C298.452 552.866 300.144 558.511 303.474 564.279C305.201 567.27 307.271 569.991 309.683 572.443C312.203 574.834 315.164 576.756 318.566 578.209C321.969 579.663 325.889 580.532 330.326 580.819C334.809 580.936 339.877 580.218 345.53 578.663C354.667 576.236 362.307 574.175 368.449 572.48C374.636 570.617 380.191 569.261 385.113 568.413C387.956 567.911 390.956 568.173 394.112 569.199C397.313 570.057 400.177 572.675 402.706 577.054C403.939 579.19 404.745 581.573 405.124 584.203C405.441 586.725 405.101 589.343 404.103 592.055C403.106 594.767 401.366 597.551 398.886 600.408C396.343 603.157 392.882 605.796 388.503 608.325C384.445 610.668 380.406 612.43 376.388 613.61C372.415 614.622 368.539 614.938 364.759 614.557C360.917 614.069 357.354 612.708 354.07 610.474ZM251.677 826.44L216.75 846.605L205.656 787.43L206.137 787.153L251.677 826.44ZM280.312 718.053L260.285 729.615L326.33 844.007L404.513 798.867L394.524 781.565L336.366 815.142L280.312 718.053Z"/>
</mask>
<path fill-rule="evenodd" clip-rule="evenodd" d="M600.939 1043.08C888.978 1043.08 1122.48 809.58 1122.48 521.541C1122.48 233.502 888.978 0 600.939 0C312.9 0 79.3984 233.502 79.3984 521.541C79.3984 589.76 92.4962 654.919 116.314 714.642L141.332 736.076L141.653 735.891L120.707 628.572L148.584 612.477L214.628 726.869L195.563 737.876L144.596 649.599L144.275 649.784L163.52 756.376L147.018 765.904L134.67 755.456C151.746 789.427 172.425 821.275 196.205 850.498L184.025 773.644L205.334 761.341L315.436 850.296L293.968 862.691L265.751 838.608L220.091 864.97L223.056 880.999C318.063 980.845 452.233 1043.08 600.939 1043.08ZM600.939 625.849C543.331 625.849 496.631 579.149 496.631 521.541C496.631 463.933 543.331 417.233 600.939 417.233C658.547 417.233 705.247 463.933 705.247 521.541C705.247 579.149 658.547 625.849 600.939 625.849ZM191.308 587.81L171.282 599.373L213.553 672.59C217.808 679.96 222.63 685.721 228.018 689.873C233.406 694.025 239.208 696.799 245.425 698.194C251.687 699.42 258.227 699.276 265.043 697.762C271.858 696.248 278.791 693.456 285.841 689.386C292.89 685.316 298.774 680.708 303.494 675.562C308.213 670.417 311.554 664.856 313.516 658.882C315.523 652.738 316.076 646.296 315.174 639.553C314.272 632.811 311.693 625.755 307.438 618.385L265.166 545.168L245.14 556.731L283.619 623.379C285.839 627.224 287.876 631.246 289.731 635.445C291.692 639.581 292.69 643.776 292.724 648.029C292.803 652.113 291.613 656.218 289.153 660.344C286.8 664.408 282.366 668.321 275.851 672.083C269.335 675.845 263.676 677.759 258.873 677.826C254.177 677.832 250.026 676.81 246.422 674.761C242.863 672.543 239.73 669.582 237.021 665.877C234.419 662.11 232.008 658.304 229.788 654.459L191.308 587.81ZM354.07 610.474C350.787 608.24 347.881 604.933 345.352 600.554L325.326 612.117C329.503 619.104 334.383 624.475 339.969 628.229C345.492 631.876 351.346 634.121 357.53 634.966C363.714 635.81 370.152 635.368 376.845 633.641C383.537 631.913 390.141 629.168 396.656 625.406C402.317 622.138 407.471 618.237 412.116 613.704C416.823 609.277 420.481 604.388 423.088 599.038C425.695 593.688 426.986 588.029 426.959 582.063C426.978 575.929 425.137 569.657 421.437 563.249C419.71 560.258 417.503 557.545 414.815 555.109C412.234 552.612 409.242 550.637 405.84 549.183C402.482 547.562 398.829 546.538 394.881 546.112C390.932 545.685 386.749 545.964 382.333 546.948C380.591 547.384 377.711 548.192 373.693 549.372C369.72 550.385 365.64 551.458 361.454 552.594C357.267 553.729 353.463 554.786 350.041 555.765C346.663 556.576 344.73 557.051 344.241 557.191C339.504 558.359 335.207 558.562 331.348 557.799C327.535 556.867 324.457 554.372 322.113 550.313C320.449 547.43 319.702 544.656 319.874 541.994C320.152 539.27 320.998 536.788 322.41 534.548C323.761 532.201 325.542 530.105 327.752 528.26C329.9 526.307 332.149 524.653 334.499 523.296C341.442 519.288 348.05 517.538 354.324 518.045C360.537 518.446 366.038 522.177 370.827 529.238L390.853 517.676C387.4 511.695 383.203 507.139 378.264 504.01C373.262 500.774 367.838 498.779 361.991 498.025C356.251 497.209 350.279 497.595 344.075 499.183C337.916 500.602 331.846 503.039 325.865 506.492C320.738 509.452 316.066 513.076 311.847 517.362C307.567 521.542 304.253 526.162 301.905 531.22C299.556 536.279 298.387 541.654 298.397 547.344C298.452 552.866 300.144 558.511 303.474 564.279C305.201 567.27 307.271 569.991 309.683 572.443C312.203 574.834 315.164 576.756 318.566 578.209C321.969 579.663 325.889 580.532 330.326 580.819C334.809 580.936 339.877 580.218 345.53 578.663C354.667 576.236 362.307 574.175 368.449 572.48C374.636 570.617 380.191 569.261 385.113 568.413C387.956 567.911 390.956 568.173 394.112 569.199C397.313 570.057 400.177 572.675 402.706 577.054C403.939 579.19 404.745 581.573 405.124 584.203C405.441 586.725 405.101 589.343 404.103 592.055C403.106 594.767 401.366 597.551 398.886 600.408C396.343 603.157 392.882 605.796 388.503 608.325C384.445 610.668 380.406 612.43 376.388 613.61C372.415 614.622 368.539 614.938 364.759 614.557C360.917 614.069 357.354 612.708 354.07 610.474ZM251.677 826.44L216.75 846.605L205.656 787.43L206.137 787.153L251.677 826.44ZM280.312 718.053L260.285 729.615L326.33 844.007L404.513 798.867L394.524 781.565L336.366 815.142L280.312 718.053Z" fill="#E7E6FF"/>
<path d="M116.314 714.642L115.551 714.946L115.626 715.134L115.78 715.266L116.314 714.642ZM141.332 736.076L140.798 736.699L141.24 737.077L141.743 736.787L141.332 736.076ZM141.653 735.891L142.063 736.602L142.571 736.309L142.459 735.733L141.653 735.891ZM120.707 628.572L120.296 627.861L119.789 628.154L119.901 628.729L120.707 628.572ZM148.584 612.477L149.295 612.067L148.884 611.355L148.173 611.766L148.584 612.477ZM214.628 726.869L215.039 727.58L215.75 727.169L215.339 726.458L214.628 726.869ZM195.563 737.876L194.852 738.287L195.262 738.998L195.973 738.587L195.563 737.876ZM144.596 649.599L145.307 649.189L144.896 648.477L144.185 648.888L144.596 649.599ZM144.275 649.784L143.865 649.073L143.365 649.362L143.467 649.93L144.275 649.784ZM163.52 756.376L163.931 757.087L164.431 756.798L164.328 756.23L163.52 756.376ZM147.018 765.904L146.488 766.53L146.929 766.903L147.429 766.615L147.018 765.904ZM134.67 755.456L135.2 754.829L133.936 755.824L134.67 755.456ZM196.205 850.498L195.569 851.016L197.494 853.382L197.016 850.369L196.205 850.498ZM184.025 773.644L183.615 772.933L183.126 773.215L183.214 773.772L184.025 773.644ZM205.334 761.341L205.85 760.703L205.411 760.349L204.923 760.63L205.334 761.341ZM315.436 850.296L315.847 851.007L316.883 850.409L315.952 849.657L315.436 850.296ZM293.968 862.691L293.435 863.315L293.876 863.692L294.378 863.402L293.968 862.691ZM265.751 838.608L266.284 837.984L265.843 837.607L265.341 837.897L265.751 838.608ZM220.091 864.97L219.68 864.259L219.178 864.549L219.283 865.12L220.091 864.97ZM223.056 880.999L222.248 881.148L222.293 881.388L222.461 881.565L223.056 880.999ZM171.282 599.373L170.871 598.662L170.16 599.072L170.57 599.783L171.282 599.373ZM191.308 587.81L192.019 587.4L191.609 586.689L190.898 587.099L191.308 587.81ZM213.553 672.59L212.842 673L212.842 673L213.553 672.59ZM228.018 689.873L228.519 689.222L228.519 689.222L228.018 689.873ZM245.425 698.194L245.246 698.995L245.256 698.997L245.267 698.999L245.425 698.194ZM303.494 675.562L304.099 676.117L304.099 676.117L303.494 675.562ZM313.516 658.882L314.296 659.138L314.296 659.137L313.516 658.882ZM315.174 639.553L314.36 639.662L314.36 639.662L315.174 639.553ZM307.438 618.385L306.727 618.796L306.727 618.796L307.438 618.385ZM265.166 545.168L265.877 544.758L265.467 544.047L264.756 544.457L265.166 545.168ZM245.14 556.731L244.729 556.019L244.018 556.43L244.429 557.141L245.14 556.731ZM283.619 623.379L282.908 623.79L282.908 623.79L283.619 623.379ZM289.731 635.445L288.98 635.776L288.984 635.786L288.989 635.796L289.731 635.445ZM292.724 648.029L291.903 648.035L291.903 648.045L292.724 648.029ZM289.153 660.344L288.448 659.924L288.443 659.933L289.153 660.344ZM275.851 672.083L275.44 671.372L275.44 671.372L275.851 672.083ZM258.873 677.826L258.874 678.647L258.884 678.647L258.873 677.826ZM246.422 674.761L245.988 675.458L246.002 675.467L246.017 675.475L246.422 674.761ZM237.021 665.877L236.345 666.343L236.351 666.352L236.358 666.361L237.021 665.877ZM229.788 654.459L229.077 654.869L229.077 654.869L229.788 654.459ZM345.352 600.554L346.063 600.144L345.653 599.433L344.942 599.843L345.352 600.554ZM325.326 612.117L324.915 611.406L324.193 611.822L324.621 612.538L325.326 612.117ZM339.969 628.229L339.511 628.91L339.516 628.914L339.969 628.229ZM376.845 633.641L377.05 634.435L377.05 634.435L376.845 633.641ZM396.656 625.406L397.067 626.117L397.067 626.117L396.656 625.406ZM412.116 613.704L411.554 613.106L411.548 613.111L411.543 613.116L412.116 613.704ZM426.959 582.063L426.138 582.061L426.138 582.067L426.959 582.063ZM421.437 563.249L420.726 563.659L420.726 563.659L421.437 563.249ZM414.815 555.109L414.244 555.7L414.254 555.709L414.264 555.718L414.815 555.109ZM405.84 549.183L405.483 549.923L405.5 549.931L405.517 549.938L405.84 549.183ZM394.881 546.112L394.793 546.928L394.793 546.928L394.881 546.112ZM382.333 546.948L382.154 546.146L382.144 546.148L382.133 546.151L382.333 546.948ZM373.693 549.372L373.895 550.168L373.91 550.164L373.924 550.16L373.693 549.372ZM361.454 552.594L361.239 551.801L361.239 551.801L361.454 552.594ZM350.041 555.765L350.232 556.563L350.249 556.559L350.266 556.554L350.041 555.765ZM344.241 557.191L344.438 557.988L344.453 557.984L344.467 557.98L344.241 557.191ZM331.348 557.799L331.154 558.596L331.171 558.601L331.189 558.604L331.348 557.799ZM322.113 550.313L321.402 550.724L321.402 550.724L322.113 550.313ZM319.874 541.994L319.057 541.91L319.055 541.926L319.054 541.941L319.874 541.994ZM322.41 534.548L323.105 534.986L323.114 534.972L323.122 534.958L322.41 534.548ZM327.752 528.26L328.278 528.89L328.291 528.879L328.304 528.867L327.752 528.26ZM334.499 523.296L334.088 522.585L334.088 522.585L334.499 523.296ZM354.324 518.045L354.258 518.864L354.271 518.864L354.324 518.045ZM370.827 529.238L370.147 529.699L370.576 530.331L371.237 529.949L370.827 529.238ZM390.853 517.676L391.264 518.387L391.975 517.976L391.564 517.265L390.853 517.676ZM378.264 504.01L377.818 504.699L377.824 504.704L378.264 504.01ZM361.991 498.025L361.875 498.838L361.886 498.839L361.991 498.025ZM344.075 499.183L344.259 499.983L344.269 499.981L344.279 499.978L344.075 499.183ZM325.865 506.492L326.276 507.203L326.276 507.203L325.865 506.492ZM311.847 517.362L312.421 517.95L312.427 517.944L312.433 517.938L311.847 517.362ZM298.397 547.344L297.576 547.346L297.576 547.352L298.397 547.344ZM303.474 564.279L302.763 564.69L302.763 564.69L303.474 564.279ZM309.683 572.443L309.098 573.019L309.108 573.029L309.118 573.039L309.683 572.443ZM318.566 578.209L318.244 578.964L318.244 578.964L318.566 578.209ZM330.326 580.819L330.274 581.638L330.289 581.639L330.305 581.639L330.326 580.819ZM345.53 578.663L345.32 577.869L345.313 577.871L345.53 578.663ZM368.449 572.48L368.668 573.271L368.677 573.269L368.686 573.266L368.449 572.48ZM385.113 568.413L385.252 569.222L385.256 569.221L385.113 568.413ZM394.112 569.199L393.858 569.98L393.878 569.986L393.899 569.992L394.112 569.199ZM402.706 577.054L403.417 576.644L403.417 576.644L402.706 577.054ZM405.124 584.203L405.938 584.1L405.937 584.093L405.936 584.086L405.124 584.203ZM398.886 600.408L399.488 600.965L399.497 600.956L399.506 600.946L398.886 600.408ZM388.503 608.325L388.093 607.614L388.093 607.614L388.503 608.325ZM376.388 613.61L376.591 614.406L376.605 614.402L376.62 614.398L376.388 613.61ZM364.759 614.557L364.655 615.372L364.666 615.373L364.676 615.374L364.759 614.557ZM216.75 846.605L215.944 846.757L216.157 847.896L217.161 847.316L216.75 846.605ZM251.677 826.44L252.087 827.151L253.088 826.574L252.213 825.819L251.677 826.44ZM205.656 787.43L205.246 786.719L204.742 787.01L204.849 787.581L205.656 787.43ZM206.137 787.153L206.673 786.531L206.232 786.15L205.726 786.441L206.137 787.153ZM260.285 729.615L259.875 728.904L259.164 729.314L259.574 730.026L260.285 729.615ZM280.312 718.053L281.023 717.642L280.612 716.931L279.901 717.342L280.312 718.053ZM326.33 844.007L325.619 844.417L326.029 845.128L326.74 844.718L326.33 844.007ZM404.513 798.867L404.924 799.578L405.635 799.168L405.224 798.457L404.513 798.867ZM394.524 781.565L395.235 781.154L394.824 780.443L394.113 780.853L394.524 781.565ZM336.366 815.142L335.655 815.552L336.066 816.263L336.777 815.853L336.366 815.142ZM1121.66 521.541C1121.66 809.126 888.525 1042.26 600.939 1042.26V1043.9C889.432 1043.9 1123.3 810.033 1123.3 521.541H1121.66ZM600.939 0.821036C888.525 0.821036 1121.66 233.955 1121.66 521.541H1123.3C1123.3 233.048 889.432 -0.821036 600.939 -0.821036V0.821036ZM80.2195 521.541C80.2195 233.955 313.354 0.821036 600.939 0.821036V-0.821036C312.447 -0.821036 78.5774 233.048 78.5774 521.541H80.2195ZM117.077 714.338C93.2967 654.71 80.2195 589.654 80.2195 521.541H78.5774C78.5774 589.865 91.6956 655.128 115.551 714.946L117.077 714.338ZM115.78 715.266L140.798 736.699L141.867 735.452L116.848 714.019L115.78 715.266ZM141.743 736.787L142.063 736.602L141.242 735.18L140.922 735.365L141.743 736.787ZM142.459 735.733L121.513 628.415L119.901 628.729L140.847 736.048L142.459 735.733ZM121.117 629.283L148.994 613.188L148.173 611.766L120.296 627.861L121.117 629.283ZM147.873 612.888L213.917 727.279L215.339 726.458L149.295 612.067L147.873 612.888ZM214.218 726.158L195.152 737.165L195.973 738.587L215.039 727.58L214.218 726.158ZM196.274 737.466L145.307 649.189L143.885 650.01L194.852 738.287L196.274 737.466ZM144.185 648.888L143.865 649.073L144.686 650.495L145.006 650.31L144.185 648.888ZM143.467 649.93L162.712 756.522L164.328 756.23L145.083 649.638L143.467 649.93ZM163.11 755.665L146.608 765.192L147.429 766.615L163.931 757.087L163.11 755.665ZM147.549 765.277L135.2 754.829L134.14 756.082L146.488 766.53L147.549 765.277ZM196.842 849.979C173.099 820.802 152.452 789.004 135.404 755.087L133.936 755.824C151.039 789.849 171.751 821.747 195.569 851.016L196.842 849.979ZM197.016 850.369L184.836 773.515L183.214 773.772L195.394 850.626L197.016 850.369ZM184.436 774.355L205.744 762.052L204.923 760.63L183.615 772.933L184.436 774.355ZM204.818 761.98L314.92 850.935L315.952 849.657L205.85 760.703L204.818 761.98ZM315.026 849.585L293.557 861.98L294.378 863.402L315.847 851.007L315.026 849.585ZM294.501 862.066L266.284 837.984L265.218 839.233L293.435 863.315L294.501 862.066ZM265.341 837.897L219.68 864.259L220.501 865.681L266.162 839.319L265.341 837.897ZM219.283 865.12L222.248 881.148L223.863 880.849L220.898 864.821L219.283 865.12ZM600.939 1042.26C452.467 1042.26 318.51 980.123 223.651 880.433L222.461 881.565C317.617 981.567 451.999 1043.9 600.939 1043.9V1042.26ZM495.81 521.541C495.81 579.602 542.878 626.67 600.939 626.67V625.028C543.785 625.028 497.452 578.695 497.452 521.541H495.81ZM600.939 416.412C542.878 416.412 495.81 463.48 495.81 521.541H497.452C497.452 464.386 543.785 418.054 600.939 418.054V416.412ZM706.068 521.541C706.068 463.48 659 416.412 600.939 416.412V418.054C658.094 418.054 704.426 464.386 704.426 521.541H706.068ZM600.939 626.67C659 626.67 706.068 579.602 706.068 521.541H704.426C704.426 578.695 658.094 625.028 600.939 625.028V626.67ZM171.692 600.084L191.719 588.521L190.898 587.099L170.871 598.662L171.692 600.084ZM214.265 672.179L171.993 598.962L170.57 599.783L212.842 673L214.265 672.179ZM228.519 689.222C223.234 685.15 218.479 679.479 214.265 672.179L212.842 673C217.138 680.44 222.025 686.291 227.517 690.523L228.519 689.222ZM245.605 697.393C239.513 696.026 233.819 693.307 228.519 689.222L227.517 690.523C232.993 694.743 238.904 697.572 245.246 698.995L245.605 697.393ZM264.864 696.961C258.148 698.453 251.724 698.591 245.583 697.388L245.267 698.999C251.651 700.25 258.305 700.1 265.221 698.564L264.864 696.961ZM285.43 688.675C278.441 692.71 271.587 695.467 264.864 696.961L265.221 698.564C272.13 697.029 279.141 694.202 286.251 690.097L285.43 688.675ZM302.889 675.007C298.234 680.082 292.419 684.64 285.43 688.675L286.251 690.097C293.361 685.992 299.314 681.334 304.099 676.117L302.889 675.007ZM312.736 658.625C310.814 664.478 307.538 669.938 302.889 675.007L304.099 676.117C308.888 670.895 312.293 665.235 314.296 659.138L312.736 658.625ZM314.36 639.662C315.246 646.289 314.702 652.607 312.735 658.627L314.296 659.137C316.344 652.87 316.905 646.302 315.987 639.445L314.36 639.662ZM306.727 618.796C310.941 626.095 313.475 633.049 314.36 639.662L315.987 639.445C315.068 632.573 312.445 625.415 308.149 617.975L306.727 618.796ZM264.455 545.579L306.727 618.796L308.149 617.975L265.877 544.758L264.455 545.579ZM245.55 557.442L265.577 545.879L264.756 544.457L244.729 556.019L245.55 557.442ZM284.33 622.969L245.851 556.32L244.429 557.141L282.908 623.79L284.33 622.969ZM290.482 635.113C288.616 630.888 286.565 626.84 284.33 622.969L282.908 623.79C285.113 627.608 287.137 631.604 288.98 635.776L290.482 635.113ZM293.545 648.022C293.51 643.641 292.481 639.329 290.473 635.093L288.989 635.796C290.903 639.834 291.87 643.911 291.903 648.035L293.545 648.022ZM289.858 660.764C292.383 656.53 293.628 652.276 293.545 648.013L291.903 648.045C291.979 651.95 290.843 655.906 288.448 659.924L289.858 660.764ZM276.261 672.794C282.833 668.999 287.408 664.998 289.864 660.755L288.443 659.933C286.193 663.819 281.899 667.643 275.44 671.372L276.261 672.794ZM258.884 678.647C263.886 678.577 269.687 676.59 276.261 672.794L275.44 671.372C268.984 675.099 263.467 676.941 258.861 677.005L258.884 678.647ZM246.017 675.475C249.76 677.603 254.054 678.653 258.874 678.647L258.872 677.005C254.299 677.011 250.293 676.017 246.828 674.047L246.017 675.475ZM236.358 666.361C239.123 670.143 242.332 673.18 245.988 675.458L246.857 674.064C243.395 671.907 240.336 669.021 237.683 665.392L236.358 666.361ZM229.077 654.869C231.308 658.734 233.731 662.559 236.345 666.343L237.696 665.41C235.106 661.661 232.707 657.873 230.499 654.048L229.077 654.869ZM190.597 588.221L229.077 654.869L230.499 654.048L192.019 587.4L190.597 588.221ZM344.641 600.965C347.215 605.423 350.199 608.833 353.608 611.153L354.532 609.795C351.375 607.647 348.546 604.444 346.063 600.144L344.641 600.965ZM325.736 612.828L345.763 601.265L344.942 599.843L324.915 611.406L325.736 612.828ZM340.426 627.547C334.961 623.874 330.158 618.601 326.031 611.695L324.621 612.538C328.847 619.608 333.806 625.076 339.511 628.91L340.426 627.547ZM357.641 634.152C351.586 633.325 345.848 631.127 340.421 627.544L339.516 628.914C345.136 632.624 351.105 634.917 357.418 635.779L357.641 634.152ZM376.639 632.846C370.039 634.55 363.708 634.981 357.641 634.152L357.418 635.779C363.719 636.639 370.265 636.187 377.05 634.435L376.639 632.846ZM396.246 624.695C389.789 628.423 383.254 631.138 376.639 632.846L377.05 634.435C383.82 632.688 390.493 629.913 397.067 626.117L396.246 624.695ZM411.543 613.116C406.946 617.601 401.848 621.461 396.246 624.695L397.067 626.117C402.787 622.815 407.995 618.873 412.69 614.291L411.543 613.116ZM422.35 598.678C419.79 603.932 416.195 608.741 411.554 613.106L412.679 614.302C417.452 609.813 421.172 604.845 423.826 599.398L422.35 598.678ZM426.138 582.067C426.164 587.907 424.902 593.441 422.35 598.678L423.826 599.398C426.489 593.934 427.807 588.151 427.78 582.06L426.138 582.067ZM420.726 563.659C424.369 569.968 426.156 576.099 426.138 582.061L427.78 582.066C427.799 575.759 425.906 569.347 422.148 562.838L420.726 563.659ZM414.264 555.718C416.892 558.099 419.044 560.746 420.726 563.659L422.148 562.838C420.377 559.77 418.115 556.991 415.367 554.501L414.264 555.718ZM405.517 549.938C408.83 551.354 411.737 553.274 414.244 555.7L415.386 554.519C412.731 551.95 409.654 549.92 406.162 548.428L405.517 549.938ZM394.793 546.928C398.654 547.344 402.215 548.344 405.483 549.923L406.197 548.444C402.75 546.779 399.005 545.731 394.969 545.295L394.793 546.928ZM382.511 547.749C386.852 546.782 390.944 546.513 394.793 546.928L394.969 545.295C390.92 544.858 386.646 545.146 382.154 546.146L382.511 547.749ZM373.924 550.16C377.942 548.98 380.808 548.176 382.532 547.744L382.133 546.151C380.374 546.592 377.48 547.404 373.461 548.585L373.924 550.16ZM361.669 553.386C365.851 552.252 369.927 551.179 373.895 550.168L373.49 548.577C369.513 549.59 365.429 550.665 361.239 551.801L361.669 553.386ZM350.266 556.554C353.684 555.577 357.485 554.521 361.669 553.386L361.239 551.801C357.049 552.937 353.241 553.995 349.815 554.976L350.266 556.554ZM344.467 557.98C344.934 557.846 346.843 557.377 350.232 556.563L349.849 554.967C346.484 555.774 344.527 556.255 344.016 556.401L344.467 557.98ZM331.189 558.604C335.19 559.395 339.612 559.178 344.438 557.988L344.045 556.393C339.397 557.54 335.223 557.728 331.508 556.993L331.189 558.604ZM321.402 550.724C323.834 554.936 327.081 557.602 331.154 558.596L331.543 557.001C327.989 556.133 325.079 553.808 322.825 549.903L321.402 550.724ZM319.054 541.941C318.87 544.801 319.677 547.735 321.402 550.724L322.825 549.903C321.22 547.125 320.534 544.512 320.693 542.047L319.054 541.941ZM321.716 534.11C320.233 536.461 319.348 539.065 319.057 541.91L320.69 542.077C320.956 539.475 321.762 537.115 323.105 534.986L321.716 534.11ZM327.226 527.63C324.946 529.533 323.101 531.703 321.699 534.138L323.122 534.958C324.422 532.7 326.138 530.678 328.278 528.89L327.226 527.63ZM334.088 522.585C331.685 523.973 329.388 525.663 327.2 527.652L328.304 528.867C330.412 526.952 332.614 525.333 334.91 524.007L334.088 522.585ZM354.39 517.227C347.91 516.703 341.136 518.516 334.088 522.585L334.91 524.007C341.747 520.06 348.19 518.373 354.258 518.863L354.39 517.227ZM371.506 528.777C366.631 521.589 360.928 517.648 354.377 517.226L354.271 518.864C360.145 519.243 365.444 522.765 370.147 529.699L371.506 528.777ZM390.443 516.965L370.416 528.527L371.237 529.949L391.264 518.387L390.443 516.965ZM377.824 504.704C382.633 507.75 386.743 512.199 390.142 518.086L391.564 517.265C388.057 511.19 383.774 506.529 378.703 503.316L377.824 504.704ZM361.886 498.839C367.61 499.577 372.918 501.529 377.818 504.699L378.71 503.321C373.606 500.019 368.066 497.98 362.096 497.21L361.886 498.839ZM344.279 499.978C350.389 498.414 356.252 498.038 361.875 498.838L362.106 497.212C356.249 496.379 350.168 496.776 343.871 498.388L344.279 499.978ZM326.276 507.203C332.193 503.787 338.187 501.383 344.259 499.983L343.891 498.383C337.646 499.822 331.5 502.291 325.455 505.781L326.276 507.203ZM312.433 517.938C316.6 513.703 321.214 510.126 326.276 507.203L325.455 505.781C320.263 508.779 315.532 512.448 311.262 516.786L312.433 517.938ZM302.649 531.566C304.953 526.604 308.207 522.065 312.421 517.95L311.274 516.775C306.928 521.019 303.553 525.719 301.16 530.875L302.649 531.566ZM299.218 547.343C299.208 541.77 300.352 536.514 302.649 531.566L301.16 530.875C298.76 536.044 297.565 541.538 297.576 547.346L299.218 547.343ZM304.185 563.869C300.912 558.198 299.271 552.69 299.218 547.336L297.576 547.352C297.633 553.042 299.377 558.825 302.763 564.69L304.185 563.869ZM310.269 571.867C307.905 569.465 305.877 566.799 304.185 563.869L302.763 564.69C304.525 567.74 306.636 570.517 309.098 573.019L310.269 571.867ZM318.889 577.454C315.57 576.036 312.693 574.167 310.248 571.848L309.118 573.039C311.713 575.501 314.757 577.475 318.244 578.964L318.889 577.454ZM330.379 579.999C326.016 579.718 322.19 578.864 318.889 577.454L318.244 578.964C321.747 580.461 325.761 581.347 330.274 581.638L330.379 579.999ZM345.313 577.871C339.715 579.411 334.73 580.113 330.348 579.998L330.305 581.639C334.889 581.76 340.039 581.025 345.748 579.454L345.313 577.871ZM368.231 571.688C362.092 573.382 354.455 575.442 345.32 577.869L345.741 579.456C354.88 577.029 362.522 574.967 368.668 573.271L368.231 571.688ZM384.974 567.604C380.011 568.459 374.423 569.823 368.212 571.694L368.686 573.266C374.85 571.41 380.371 570.063 385.252 569.222L384.974 567.604ZM394.365 568.418C391.101 567.357 387.964 567.076 384.97 567.604L385.256 569.221C387.948 568.746 390.811 568.989 393.858 569.98L394.365 568.418ZM403.417 576.644C400.836 572.173 397.824 569.344 394.324 568.406L393.899 569.992C396.802 570.77 399.519 573.177 401.994 577.465L403.417 576.644ZM405.936 584.086C405.544 581.361 404.706 578.877 403.417 576.644L401.994 577.465C403.172 579.504 403.946 581.786 404.311 584.32L405.936 584.086ZM404.874 592.338C405.91 589.52 406.274 586.77 405.938 584.1L404.309 584.305C404.608 586.681 404.291 589.166 403.333 591.772L404.874 592.338ZM399.506 600.946C402.032 598.037 403.833 595.168 404.874 592.338L403.333 591.772C402.378 594.366 400.7 597.066 398.266 599.869L399.506 600.946ZM388.914 609.036C393.341 606.48 396.874 603.792 399.488 600.965L398.283 599.85C395.812 602.522 392.424 605.113 388.093 607.614L388.914 609.036ZM376.62 614.398C380.707 613.197 384.805 611.408 388.914 609.036L388.093 607.614C384.084 609.928 380.105 611.662 376.157 612.823L376.62 614.398ZM364.676 615.374C368.559 615.765 372.532 615.44 376.591 614.406L376.185 612.815C372.298 613.805 368.518 614.111 364.841 613.74L364.676 615.374ZM353.608 611.153C356.996 613.458 360.681 614.867 364.655 615.372L364.862 613.743C361.152 613.272 357.712 611.959 354.532 609.795L353.608 611.153ZM217.161 847.316L252.087 827.151L251.266 825.729L216.34 845.894L217.161 847.316ZM204.849 787.581L215.944 846.757L217.557 846.454L206.463 787.279L204.849 787.581ZM205.726 786.441L205.246 786.719L206.067 788.141L206.547 787.864L205.726 786.441ZM252.213 825.819L206.673 786.531L205.601 787.774L251.141 827.062L252.213 825.819ZM260.696 730.326L280.722 718.764L279.901 717.342L259.875 728.904L260.696 730.326ZM327.041 843.596L260.996 729.204L259.574 730.026L325.619 844.417L327.041 843.596ZM404.103 798.156L325.919 843.296L326.74 844.718L404.924 799.578L404.103 798.156ZM393.812 781.975L403.802 799.278L405.224 798.457L395.235 781.154L393.812 781.975ZM336.777 815.853L394.934 782.276L394.113 780.853L335.956 814.431L336.777 815.853ZM279.601 718.463L335.655 815.552L337.077 814.731L281.023 717.642L279.601 718.463Z" fill="#E7E6FF" mask="url(#path-1-inside-1_235_2464)"/>
<circle cx="601.486" cy="520.994" r="22.6228" fill="#E7E6FF" stroke="#E7E6FF" stroke-width="0.821036"/>
<path fill-rule="evenodd" clip-rule="evenodd" d="M14.9332 655.154C8.07338 659.115 3.06785 665.638 1.01774 673.289C-1.03237 680.94 0.0408823 689.092 4.00138 695.952L70.0456 810.344C70.7119 811.498 71.4437 812.591 72.2334 813.62L108.602 876.385L149.014 946.381C157.261 960.665 175.527 965.56 189.812 957.312L195.008 954.312L195.22 954.391L241.015 927.843L240.718 927.921L241.772 927.313C252.725 920.989 258.507 908.452 256.207 896.015L253.297 880.286L262.411 875.023L274.579 885.408C284.199 893.619 297.948 894.88 308.901 888.556L330.369 876.161C332.216 875.095 333.922 873.847 335.471 872.446C337.449 871.808 339.39 870.953 341.263 869.872L419.447 824.732C433.731 816.485 438.626 798.219 430.378 783.935L420.388 766.632C412.141 752.347 393.875 747.452 379.59 755.7L347.298 774.344L309.836 709.458C315.547 705.415 320.812 700.866 325.504 695.75C332.775 687.822 338.465 678.634 341.891 668.2L341.905 668.158C342.523 666.265 343.059 664.362 343.513 662.449C346.753 663.384 350.081 664.092 353.489 664.557C363.909 665.98 374.266 665.152 384.31 662.559C393.838 660.099 402.94 656.265 411.59 651.271C419.311 646.813 426.393 641.471 432.781 635.268C439.808 628.618 445.653 620.91 449.936 612.122C454.539 602.676 456.857 592.53 456.826 582.033C456.838 569.681 453.076 558.317 447.302 548.316C444.028 542.646 439.942 537.638 435.22 533.298C430.747 529.043 425.714 525.59 420.253 522.94C421.455 516.242 420.387 509.098 416.718 502.743C411.31 493.376 404.004 484.994 394.369 478.858C385.749 473.305 376.2 469.772 366.002 468.429C356.188 467.061 346.447 467.79 337.02 470.161C327.847 472.314 319.139 475.889 310.932 480.627C303.522 484.906 296.787 490.122 290.764 496.207C284.569 502.301 279.396 509.286 275.527 517.156C267.487 514.187 258.235 514.683 250.233 519.303L230.207 530.866C215.922 539.113 211.027 557.379 219.275 571.664L257.754 638.312C259.124 640.685 260.419 643.177 261.634 645.795C261.41 645.93 261.172 646.071 260.918 646.218C260.626 646.387 260.351 646.541 260.091 646.682C258.509 644.297 257.03 641.912 255.653 639.526L217.173 572.877C208.926 558.592 190.66 553.698 176.375 561.945L156.348 573.508C152.378 575.8 149.028 578.951 146.514 582.683C142.025 582.995 137.621 584.32 133.651 586.612L105.774 602.707C94.7273 609.085 88.9504 621.774 91.3938 634.293L96.0043 657.915L77.4946 642.058C67.8744 633.816 54.1013 632.54 43.1306 638.874L14.9332 655.154ZM114.976 784.403L95.9105 795.411L29.8663 681.019L58.0637 664.739L141.333 736.076L141.653 735.891L120.707 628.572L148.584 612.477L214.628 726.869L195.563 737.876L144.596 649.599L144.275 649.784L163.52 756.376L147.018 765.904L64.3293 695.941L64.0089 696.126L114.976 784.403ZM236.011 747.731C236.063 747.678 236.114 747.625 236.166 747.571L236.474 748.105L236.011 747.731ZM404.513 798.868L326.33 844.007L260.285 729.615L280.312 718.053L336.366 815.142L394.524 781.565L404.513 798.868ZM245.14 556.731L265.166 545.168L307.438 618.386C308.084 619.504 308.691 620.616 309.26 621.72C309.889 622.942 310.471 624.155 311.006 625.359C311.091 625.552 311.176 625.744 311.259 625.936C313.279 630.609 314.584 635.148 315.174 639.554C315.511 642.076 315.645 644.557 315.575 646.996C315.57 647.193 315.563 647.389 315.554 647.585C315.551 647.672 315.547 647.759 315.543 647.845C315.36 651.626 314.685 655.305 313.516 658.882C312.136 663.083 310.075 667.078 307.333 670.869C307.28 670.942 307.227 671.015 307.174 671.088C306.058 672.613 304.831 674.104 303.494 675.563C298.969 680.496 293.374 684.935 286.708 688.879C286.421 689.049 286.132 689.218 285.841 689.386C279.859 692.839 273.962 695.373 268.149 696.986C267.111 697.274 266.075 697.533 265.043 697.762C263.06 698.203 261.101 698.527 259.166 698.736C259.121 698.741 259.076 698.745 259.031 698.75C258.987 698.755 258.942 698.759 258.898 698.764C257.096 698.948 255.315 699.032 253.554 699.015C250.795 698.988 248.085 698.715 245.425 698.194C241.888 697.4 238.484 696.16 235.215 694.473C234.944 694.334 234.675 694.191 234.406 694.045C232.216 692.858 230.086 691.467 228.018 689.873C227.858 689.749 227.698 689.624 227.538 689.498C224.195 686.845 221.072 683.565 218.171 679.658C218.047 679.491 217.923 679.323 217.8 679.154C216.327 677.13 214.911 674.942 213.554 672.59L171.282 599.373L191.308 587.81L229.788 654.459C231.042 656.631 232.357 658.791 233.734 660.939C234.793 662.592 235.889 664.238 237.021 665.877C238.585 668.016 240.29 669.908 242.138 671.551C243.49 672.754 244.918 673.824 246.422 674.761C247.474 675.359 248.571 675.869 249.715 676.292C249.907 676.363 250.1 676.431 250.294 676.497C252.916 677.387 255.776 677.83 258.873 677.826C259.434 677.819 260.007 677.786 260.592 677.727C265.01 677.287 270.097 675.405 275.851 672.083C281.666 668.726 285.823 665.247 288.323 661.649C288.624 661.216 288.9 660.781 289.153 660.344C290.82 657.548 291.904 654.761 292.405 651.984L292.411 651.951C292.645 650.642 292.749 649.334 292.724 648.029C292.709 646.22 292.52 644.421 292.157 642.633C291.666 640.218 290.858 637.822 289.731 635.445C288.924 633.618 288.083 631.826 287.207 630.066C286.069 627.781 284.873 625.552 283.619 623.379L245.14 556.731ZM339.969 628.229C334.384 624.475 329.503 619.105 325.326 612.117L345.352 600.555C347.093 603.57 349.013 606.076 351.112 608.075C351.559 608.5 352.014 608.903 352.478 609.283C352.526 609.322 352.574 609.361 352.623 609.4C353.097 609.782 353.579 610.14 354.07 610.474C356.09 611.849 358.215 612.892 360.446 613.606C361.842 614.052 363.28 614.369 364.759 614.557C367.1 614.793 369.478 614.762 371.894 614.463C373.378 614.28 374.876 613.996 376.388 613.61C379.98 612.555 383.589 611.035 387.213 609.05C387.643 608.815 388.073 608.573 388.503 608.325C392.882 605.796 396.343 603.158 398.886 600.408C398.926 600.362 398.966 600.315 399.006 600.269C399.082 600.181 399.158 600.092 399.232 600.003C401.529 597.289 403.153 594.639 404.103 592.055C404.347 591.393 404.551 590.736 404.716 590.085C405.228 588.07 405.364 586.11 405.124 584.203C405.023 583.505 404.893 582.825 404.732 582.162C404.719 582.107 404.705 582.051 404.691 581.996C404.246 580.224 403.584 578.576 402.706 577.054C402.252 576.269 401.788 575.54 401.313 574.868C400.633 573.907 399.932 573.062 399.209 572.333C399.028 572.15 398.845 571.974 398.661 571.806C398.052 571.25 397.427 570.772 396.788 570.375C396.48 570.183 396.168 570.01 395.853 569.856C395.284 569.577 394.704 569.358 394.112 569.199C393.55 569.016 392.993 568.858 392.441 568.724C390.798 568.324 389.2 568.139 387.645 568.169C387.45 568.172 387.256 568.179 387.063 568.19C386.405 568.225 385.755 568.3 385.113 568.413C383.359 568.715 381.525 569.082 379.61 569.513C379.364 569.569 379.116 569.625 378.867 569.683C375.62 570.434 372.148 571.366 368.449 572.48C367.962 572.615 367.465 572.751 366.958 572.891C364.9 573.456 362.686 574.06 360.316 574.701C358.871 575.093 357.367 575.498 355.806 575.918L354.934 576.152C353.36 576.575 351.729 577.012 350.04 577.462L349.291 577.662C348.067 577.988 346.813 578.322 345.53 578.663C341.336 579.817 337.464 580.51 333.914 580.743C332.679 580.824 331.483 580.849 330.326 580.819C329.136 580.742 327.983 580.623 326.867 580.462C326.525 580.413 326.186 580.36 325.851 580.303C324.563 580.083 323.327 579.805 322.142 579.468C320.971 579.136 319.851 578.746 318.781 578.3C318.754 578.289 318.726 578.277 318.699 578.266C318.655 578.247 318.611 578.228 318.566 578.209C315.164 576.756 312.203 574.834 309.683 572.443C307.271 569.991 305.201 567.27 303.474 564.279C303.003 563.462 302.564 562.647 302.158 561.835C299.698 556.914 298.444 552.084 298.397 547.344C298.394 545.988 298.459 544.649 298.591 543.329C298.681 542.426 298.802 541.531 298.955 540.645C298.999 540.386 299.047 540.127 299.097 539.87C299.675 536.891 300.611 534.008 301.905 531.22C302.932 529.008 304.144 526.879 305.54 524.835C305.688 524.619 305.837 524.404 305.989 524.19C307.684 521.797 309.637 519.521 311.847 517.362C312.892 516.301 313.965 515.28 315.065 514.3C315.262 514.125 315.459 513.951 315.658 513.778C318.599 511.22 321.735 508.947 325.067 506.96C325.332 506.803 325.598 506.647 325.865 506.492C331.846 503.039 337.916 500.603 344.075 499.183C348.025 498.172 351.88 497.648 355.642 497.612C355.754 497.611 355.866 497.61 355.977 497.61C358.009 497.605 360.014 497.744 361.991 498.025C362.825 498.132 363.651 498.265 364.468 498.423C369.377 499.374 373.976 501.236 378.264 504.01C382.75 506.853 386.624 510.871 389.884 516.066C389.921 516.124 389.957 516.182 389.993 516.24C390.285 516.709 390.571 517.188 390.853 517.676L370.827 529.238C369.746 527.645 368.629 526.221 367.476 524.967C367.028 524.479 366.574 524.018 366.115 523.582C366.063 523.532 366.011 523.483 365.959 523.434C365.904 523.383 365.849 523.332 365.794 523.282C364.957 522.512 364.101 521.826 363.228 521.225C361.947 520.344 360.628 519.643 359.27 519.124C359.182 519.091 359.094 519.058 359.006 519.026C357.493 518.476 355.933 518.149 354.324 518.045C352.553 517.902 350.756 517.939 348.931 518.155C348.816 518.169 348.7 518.183 348.584 518.199C348.543 518.204 348.503 518.209 348.462 518.215C344.219 518.789 339.833 520.331 335.304 522.841C335.036 522.989 334.768 523.141 334.499 523.297C332.149 524.653 329.9 526.308 327.752 528.26C326.866 529 326.049 529.78 325.301 530.601C325.216 530.694 325.133 530.787 325.05 530.881C324.038 532.026 323.159 533.249 322.41 534.548C321.398 536.153 320.677 537.883 320.247 539.736C320.077 540.47 319.953 541.222 319.874 541.994C319.766 543.66 320.018 545.37 320.63 547.122C320.651 547.183 320.673 547.244 320.695 547.305C321.054 548.294 321.527 549.297 322.114 550.314C322.597 551.151 323.112 551.922 323.658 552.626C324.409 553.595 325.219 554.437 326.088 555.154C326.302 555.331 326.52 555.499 326.741 555.661C327.111 555.93 327.49 556.178 327.88 556.405C328.838 556.962 329.855 557.391 330.934 557.691C331.071 557.729 331.209 557.765 331.348 557.799C331.5 557.829 331.653 557.857 331.806 557.884C334.306 558.326 336.988 558.369 339.851 558.013C339.913 558.005 339.976 557.997 340.039 557.989C341.399 557.813 342.8 557.546 344.242 557.191C344.73 557.051 346.663 556.576 350.041 555.765C351.544 555.335 353.122 554.89 354.773 554.43C356.88 553.842 359.107 553.23 361.454 552.594C361.765 552.509 362.075 552.425 362.385 552.342L362.857 552.214C366.553 551.218 370.165 550.271 373.693 549.373C376.948 548.416 379.456 547.704 381.218 547.236L381.366 547.197L381.454 547.174C381.773 547.09 382.066 547.014 382.333 546.948C386.749 545.964 390.932 545.686 394.881 546.112C396.578 546.295 398.22 546.588 399.808 546.992C399.858 547.005 399.908 547.018 399.958 547.031L400.045 547.054C400.436 547.156 400.823 547.265 401.206 547.381C402.809 547.865 404.353 548.465 405.84 549.184C409.242 550.637 412.234 552.612 414.815 555.11C417.503 557.545 419.711 560.258 421.437 563.249C421.876 564.01 422.289 564.768 422.676 565.525C425.37 570.796 426.793 575.975 426.946 581.059C426.95 581.192 426.953 581.325 426.955 581.458C426.958 581.66 426.96 581.862 426.959 582.064C426.986 588.029 425.695 593.688 423.088 599.038C420.666 604.009 417.337 608.581 413.102 612.755C412.963 612.892 412.823 613.029 412.682 613.165C412.495 613.345 412.306 613.525 412.116 613.704C407.822 617.895 403.093 621.545 397.931 624.655C397.509 624.909 397.084 625.159 396.656 625.406C391.767 628.23 386.827 630.48 381.837 632.157C381.712 632.2 381.587 632.241 381.462 632.283C381.364 632.315 381.267 632.347 381.169 632.379C379.732 632.847 378.29 633.267 376.845 633.641C371.983 634.896 367.255 635.472 362.661 635.37C362.48 635.366 362.299 635.361 362.118 635.355C360.574 635.302 359.044 635.173 357.53 634.966C354.65 634.573 351.842 633.875 349.105 632.874C347.35 632.232 345.624 631.465 343.927 630.573C343.071 630.123 342.222 629.64 341.38 629.126C340.907 628.837 340.437 628.538 339.969 628.229ZM157.126 794.718L157.02 794.047C156.942 794.075 156.864 794.102 156.786 794.129L157.126 794.718ZM108.834 817.056L128.861 805.493L194.905 919.885L174.878 931.447L108.834 817.056ZM184.025 773.644L205.334 761.342L315.436 850.296L293.968 862.691L265.751 838.608L220.091 864.971L226.839 901.448L206.171 913.381L184.025 773.644ZM205.656 787.43L206.137 787.153L251.677 826.441L216.751 846.605L205.656 787.43ZM264.419 643.825C264.416 643.828 264.411 643.833 264.406 643.838C264.421 643.824 264.428 643.816 264.428 643.816C264.428 643.816 264.425 643.819 264.419 643.825Z" fill="#E7E6FF"/>
</svg>
