<svg width="29" height="29" viewBox="0 0 29 29" fill="none" xmlns="http://www.w3.org/2000/svg">
<rect x="0.0644531" y="0.115234" width="28" height="28.1587" rx="14" fill="#121214"/>
<path d="M5.58008 12.5576C5.58008 11.6024 5.75954 10.708 6.11847 9.87432C6.47741 9.03488 6.97528 8.29676 7.61209 7.65994C8.24891 7.02313 8.98414 6.52526 9.81778 6.16633C10.6572 5.8074 11.5545 5.62793 12.5098 5.62793C13.465 5.62793 14.3594 5.8074 15.1931 6.16633C16.0325 6.52526 16.7706 7.02313 17.4074 7.65994C18.0443 8.29676 18.5421 9.03488 18.9011 9.87432C19.26 10.708 19.4395 11.6024 19.4395 12.5576C19.4395 13.3507 19.3121 14.1033 19.0574 14.8154C18.8084 15.5275 18.4611 16.173 18.0153 16.7519L22.2617 21.0243C22.3543 21.117 22.4238 21.2241 22.4701 21.3456C22.5222 21.4672 22.5483 21.5975 22.5483 21.7364C22.5483 21.9275 22.5048 22.1011 22.418 22.2574C22.337 22.4137 22.2212 22.5353 22.0706 22.6222C21.9201 22.7148 21.7465 22.7611 21.5496 22.7611C21.4107 22.7611 21.2775 22.7351 21.1502 22.6829C21.0286 22.6366 20.9157 22.5643 20.8115 22.4659L16.5391 18.1847C15.9717 18.59 15.3465 18.9084 14.6634 19.14C13.9802 19.3715 13.2624 19.4873 12.5098 19.4873C11.5545 19.4873 10.6572 19.3078 9.81778 18.9489C8.98414 18.59 8.24891 18.0921 7.61209 17.4553C6.97528 16.8185 6.47741 16.0832 6.11847 15.2496C5.75954 14.4102 5.58008 13.5128 5.58008 12.5576ZM7.06501 12.5576C7.06501 13.3102 7.20395 14.0165 7.48183 14.6765C7.76551 15.3306 8.15628 15.9067 8.65415 16.4045C9.15781 16.9024 9.73673 17.2932 10.3909 17.5769C11.0509 17.8605 11.7572 18.0024 12.5098 18.0024C13.2624 18.0024 13.9658 17.8605 14.6199 17.5769C15.2799 17.2932 15.8588 16.9024 16.3567 16.4045C16.8546 15.9067 17.2453 15.3306 17.529 14.6765C17.8127 14.0165 17.9545 13.3102 17.9545 12.5576C17.9545 11.805 17.8127 11.1016 17.529 10.4474C17.2453 9.78748 16.8546 9.20856 16.3567 8.71069C15.8588 8.20702 15.2799 7.81625 14.6199 7.53837C13.9658 7.2547 13.2624 7.11286 12.5098 7.11286C11.7572 7.11286 11.0509 7.2547 10.3909 7.53837C9.73673 7.81625 9.15781 8.20702 8.65415 8.71069C8.15628 9.20856 7.76551 9.78748 7.48183 10.4474C7.20395 11.1016 7.06501 11.805 7.06501 12.5576Z" fill="#F3F3F3"/>
</svg>
