<svg width="38" height="38" viewBox="0 0 38 38" fill="none" xmlns="http://www.w3.org/2000/svg">
<rect width="38" height="38" rx="19" fill="#121214"/>
<path d="M9.33203 19C9.33203 18.7109 9.43359 18.4648 9.63672 18.2617C9.84766 18.0508 10.0938 17.9453 10.375 17.9453H17.957V10.375C17.957 10.0938 18.0586 9.85156 18.2617 9.64844C18.4648 9.4375 18.7109 9.33203 19 9.33203C19.2891 9.33203 19.5352 9.4375 19.7383 9.64844C19.9492 9.85156 20.0547 10.0938 20.0547 10.375V17.9453H27.625C27.9062 17.9453 28.1484 18.0508 28.3516 18.2617C28.5625 18.4648 28.668 18.7109 28.668 19C28.668 19.2891 28.5625 19.5352 28.3516 19.7383C28.1484 19.9414 27.9062 20.043 27.625 20.043H20.0547V27.625C20.0547 27.9062 19.9492 28.1484 19.7383 28.3516C19.5352 28.5625 19.2891 28.668 19 28.668C18.7109 28.668 18.4648 28.5625 18.2617 28.3516C18.0586 28.1484 17.957 27.9062 17.957 27.625V20.043H10.375C10.0938 20.043 9.84766 19.9414 9.63672 19.7383C9.43359 19.5352 9.33203 19.2891 9.33203 19Z" fill="#F3F3F3"/>
</svg>
