<svg width="38" height="38" viewBox="0 0 38 38" fill="none" xmlns="http://www.w3.org/2000/svg">
<rect width="38" height="38" rx="19" fill="#121214"/>
<path d="M11.6348 29.8516C9.7207 29.8516 8.76367 29.2266 8.76367 27.9766C8.76367 27.2109 8.99805 26.3945 9.4668 25.5273C9.93555 24.6602 10.6113 23.8438 11.4941 23.0781C12.3848 22.3047 13.459 21.6758 14.7168 21.1914C15.9824 20.707 17.4121 20.4648 19.0059 20.4648C20.5918 20.4648 22.0137 20.707 23.2715 21.1914C24.5371 21.6758 25.6113 22.3047 26.4941 23.0781C27.3848 23.8438 28.0645 24.6602 28.5332 25.5273C29.002 26.3945 29.2363 27.2109 29.2363 27.9766C29.2363 29.2266 28.2793 29.8516 26.3652 29.8516H11.6348ZM11.084 28.082H26.9277C27.0762 28.082 27.1816 28.0586 27.2441 28.0117C27.3145 27.9648 27.3496 27.8789 27.3496 27.7539C27.3496 27.2773 27.166 26.7266 26.7988 26.1016C26.4395 25.4688 25.9043 24.8594 25.1934 24.2734C24.4824 23.6875 23.6074 23.2031 22.5684 22.8203C21.5371 22.4297 20.3496 22.2344 19.0059 22.2344C17.6621 22.2344 16.4707 22.4297 15.4316 22.8203C14.3926 23.2031 13.5176 23.6875 12.8066 24.2734C12.0957 24.8594 11.5566 25.4688 11.1895 26.1016C10.8301 26.7266 10.6504 27.2773 10.6504 27.7539C10.6504 27.8789 10.6816 27.9648 10.7441 28.0117C10.8145 28.0586 10.9277 28.082 11.084 28.082ZM19.0059 19.0117C18.0762 19.0117 17.2285 18.7656 16.4629 18.2734C15.6973 17.7734 15.084 17.1094 14.623 16.2812C14.1699 15.4453 13.9434 14.5273 13.9434 13.5273C13.9434 12.5352 14.1699 11.6328 14.623 10.8203C15.084 10.0078 15.6973 9.35938 16.4629 8.875C17.2285 8.39062 18.0762 8.14844 19.0059 8.14844C19.9434 8.14844 20.7949 8.38672 21.5605 8.86328C22.3262 9.33984 22.9355 9.98438 23.3887 10.7969C23.8418 11.6016 24.0684 12.5039 24.0684 13.5039C24.0684 14.5117 23.8379 15.4336 23.377 16.2695C22.9238 17.0977 22.3145 17.7617 21.5488 18.2617C20.7832 18.7617 19.9355 19.0117 19.0059 19.0117ZM19.0059 17.2422C19.584 17.2422 20.1113 17.0742 20.5879 16.7383C21.0723 16.4023 21.459 15.9531 21.748 15.3906C22.0371 14.8203 22.1816 14.1914 22.1816 13.5039C22.1816 12.8242 22.0371 12.2148 21.748 11.6758C21.4668 11.1289 21.084 10.6992 20.5996 10.3867C20.123 10.0742 19.5918 9.91797 19.0059 9.91797C18.4277 9.91797 17.8965 10.0781 17.4121 10.3984C16.9355 10.7188 16.5527 11.1523 16.2637 11.6992C15.9746 12.2383 15.8301 12.8477 15.8301 13.5273C15.8301 14.2148 15.9746 14.8398 16.2637 15.4023C16.5605 15.9648 16.9473 16.4141 17.4238 16.75C17.9082 17.0781 18.4355 17.2422 19.0059 17.2422Z" fill="#F3F3F3"/>
</svg>
