<svg width="21" height="21" viewBox="0 0 21 21" fill="none" xmlns="http://www.w3.org/2000/svg">
<path d="M0.5 10.5C0.5 10.201 0.605051 9.94647 0.815152 9.73636C1.03333 9.51818 1.28788 9.40909 1.57879 9.40909H9.42121V1.57879C9.42121 1.28788 9.52626 1.03737 9.73636 0.827273C9.94647 0.609091 10.201 0.5 10.5 0.5C10.799 0.5 11.0535 0.609091 11.2636 0.827273C11.4818 1.03737 11.5909 1.28788 11.5909 1.57879V9.40909H19.4212C19.7121 9.40909 19.9626 9.51818 20.1727 9.73636C20.3909 9.94647 20.5 10.201 20.5 10.5C20.5 10.799 20.3909 11.0535 20.1727 11.2636C19.9626 11.4737 19.7121 11.5788 19.4212 11.5788H11.5909V19.4212C11.5909 19.7121 11.4818 19.9626 11.2636 20.1727C11.0535 20.3909 10.799 20.5 10.5 20.5C10.201 20.5 9.94647 20.3909 9.73636 20.1727C9.52626 19.9626 9.42121 19.7121 9.42121 19.4212V11.5788H1.57879C1.28788 11.5788 1.03333 11.4737 0.815152 11.2636C0.605051 11.0535 0.5 10.799 0.5 10.5Z" fill="#222224"/>
</svg>
