<svg width="574" height="130" viewBox="0 0 574 130" fill="none" xmlns="http://www.w3.org/2000/svg">
<path fill-rule="evenodd" clip-rule="evenodd" d="M-3.05176e-05 64.967C-3.05176e-05 53.9114 2.75391 43.4997 7.61248 34.382L21.2955 42.2907L25.9862 34.157L12.6184 26.4305C23.7601 11.2773 41.305 1.13383 61.2578 0L61.2578 15.9942L70.6392 15.9942V0.135459C90.6542 1.85745 108.078 12.6598 118.78 28.4082L105.224 36.2435L109.915 44.3772L123.484 36.5345C127.658 45.1246 130 54.772 130 64.967C130 76.2842 127.114 86.9267 122.039 96.1971L108.713 88.4948L104.023 96.6284L116.941 104.095C105.903 118.758 88.8144 128.597 69.3903 129.894L69.3903 114.272H60.0089L60.0089 129.851C39.6907 128.307 21.9827 117.41 11.1696 101.452L24.3683 93.8227L19.6776 85.689L6.47723 93.3188C2.32719 84.749 -3.05176e-05 75.1301 -3.05176e-05 64.967Z" fill="#121214"/>
<path fill-rule="evenodd" clip-rule="evenodd" d="M444 64.967C444 53.9114 446.754 43.4997 451.612 34.3819L465.296 42.2907L469.986 34.157L456.618 26.4304C467.76 11.2772 485.305 1.13383 505.258 0V15.9942L514.639 15.9942V0.135463C534.654 1.85746 552.078 12.6598 562.78 28.4082L549.224 36.2435L553.915 44.3772L567.484 36.5345C571.658 45.1246 574 54.772 574 64.967C574 76.2842 571.114 86.9267 566.039 96.1971L552.713 88.4948L548.023 96.6285L560.941 104.095C549.903 118.758 532.814 128.597 513.39 129.894V114.272H504.009L504.009 129.851C483.691 128.307 465.983 117.41 455.17 101.452L468.368 93.8227L463.678 85.689L450.477 93.3188C446.327 84.749 444 75.1301 444 64.967Z" fill="#121214"/>
</svg>
