<svg width="575" height="130" viewBox="0 0 575 130" fill="none" xmlns="http://www.w3.org/2000/svg">
<path d="M112.317 111.234L95.6386 106.906L87.3283 111.549L82.8564 127.706C77.1946 129.192 71.245 130 65.1034 130C58.9522 130 52.993 129.201 47.3408 127.706L42.8594 111.549L34.549 106.906L17.8804 111.234C9.2963 103.037 3.15367 92.7528 0.0986023 81.4636L12.3146 69.6429V60.3572L0.0986023 48.5365C3.15208 37.244 9.29482 26.9567 17.8804 18.7572L34.549 23.0843L42.8594 18.4415L47.3408 2.28434C53.1268 0.760448 59.0974 -0.00779121 65.0938 5.95653e-05C71.245 5.95653e-05 77.2042 0.79863 82.8564 2.29363L87.3283 18.4508L95.6386 23.0936L112.317 18.7665C120.761 26.845 126.999 37.0686 130.099 48.5365L117.873 60.3572V69.6429L130.099 81.4636C127.044 92.7528 120.901 103.037 112.317 111.234Z" fill="#121214"/>
<path d="M556.317 111.234L539.639 106.906L531.328 111.549L526.856 127.706C521.195 129.192 515.245 130 509.103 130C502.952 130 496.993 129.201 491.341 127.706L486.859 111.549L478.549 106.906L461.88 111.234C453.296 103.037 447.154 92.7528 444.099 81.4636L456.315 69.6429V60.3572L444.099 48.5365C447.152 37.244 453.295 26.9567 461.88 18.7572L478.549 23.0843L486.859 18.4415L491.341 2.28434C497.127 0.760448 503.097 -0.00779121 509.094 5.95653e-05C515.245 5.95653e-05 521.204 0.79863 526.856 2.29363L531.328 18.4508L539.639 23.0936L556.317 18.7665C564.762 26.845 570.999 37.0686 574.099 48.5365L561.873 60.3572V69.6429L574.099 81.4636C571.044 92.7528 564.901 103.037 556.317 111.234Z" fill="#121214"/>
</svg>
