<svg width="31" height="25" viewBox="0 0 31 25" fill="none" xmlns="http://www.w3.org/2000/svg">
<path d="M29.6459 19.8293C29.6459 21.0914 29.3479 22.0467 28.7519 22.6953C28.1559 23.3526 27.2619 23.6813 26.07 23.6813H4.03605C3.05442 23.6813 2.31821 23.3789 1.8274 22.7742C1.33658 22.1782 1.06927 21.2842 1.02545 20.0922L6.03435 15.5698C6.30605 15.3244 6.58213 15.1403 6.8626 15.0176C7.14306 14.8949 7.43229 14.8336 7.73028 14.8336C8.03704 14.8336 8.33941 14.8993 8.6374 15.0308C8.94416 15.1535 9.23339 15.3375 9.50509 15.5829L11.9372 17.7784L17.8796 12.4671C18.1863 12.2042 18.5018 12.007 18.8261 11.8755C19.1504 11.7441 19.4922 11.6783 19.8516 11.6783C20.2109 11.6783 20.5571 11.7485 20.8902 11.8887C21.2232 12.0289 21.5387 12.2305 21.8367 12.4934L29.6459 19.8293ZM9.79432 12.6249C9.22463 12.6249 8.70314 12.4891 8.22986 12.2174C7.76534 11.9369 7.39285 11.56 7.11238 11.0867C6.83192 10.6135 6.69169 10.092 6.69169 9.52227C6.69169 8.96134 6.83192 8.44424 7.11238 7.97096C7.39285 7.49767 7.76534 7.1208 8.22986 6.84034C8.70314 6.55987 9.22463 6.41964 9.79432 6.41964C10.364 6.41964 10.8811 6.55987 11.3456 6.84034C11.8102 7.1208 12.1826 7.49767 12.4631 7.97096C12.7436 8.44424 12.8838 8.96134 12.8838 9.52227C12.8838 10.092 12.7436 10.6135 12.4631 11.0867C12.1826 11.56 11.8102 11.9369 11.3456 12.2174C10.8811 12.4891 10.364 12.6249 9.79432 12.6249ZM4.12807 24.6016C2.75205 24.6016 1.71784 24.2598 1.02545 23.5761C0.341815 22.9013 0 21.889 0 20.5392V4.47393C0 3.11543 0.341815 2.09875 1.02545 1.42388C1.71784 0.740253 2.75205 0.398438 4.12807 0.398438H26.8719C28.2567 0.398438 29.2909 0.740253 29.9746 1.42388C30.6582 2.10751 31 3.12419 31 4.47393V20.5392C31 21.889 30.6582 22.9013 29.9746 23.5761C29.2909 24.2598 28.2567 24.6016 26.8719 24.6016H4.12807ZM4.15437 22.485H26.8456C27.4942 22.485 27.9938 22.314 28.3444 21.9722C28.7037 21.6216 28.8834 21.1045 28.8834 20.4209V4.59225C28.8834 3.90862 28.7037 3.39151 28.3444 3.04093C27.9938 2.69035 27.4942 2.51506 26.8456 2.51506H4.15437C3.49703 2.51506 2.99307 2.69035 2.64249 3.04093C2.29191 3.39151 2.11662 3.90862 2.11662 4.59225V20.4209C2.11662 21.1045 2.29191 21.6216 2.64249 21.9722C2.99307 22.314 3.49703 22.485 4.15437 22.485Z" fill="white"/>
</svg>
