<svg width="38" height="37" viewBox="0 0 38 37" fill="none" xmlns="http://www.w3.org/2000/svg">
<path d="M0.870605 18.5001C0.870605 17.958 1.06106 17.4966 1.44196 17.1157C1.83751 16.7201 2.29899 16.5223 2.82639 16.5223H17.0443V2.32639C17.0443 1.79899 17.2348 1.34484 17.6157 0.963935C17.9966 0.568382 18.458 0.370605 19.0001 0.370605C19.5422 0.370605 20.0036 0.568382 20.3845 0.963935C20.7801 1.34484 20.9779 1.79899 20.9779 2.32639V16.5223H35.1738C35.7012 16.5223 36.1554 16.7201 36.5363 17.1157C36.9318 17.4966 37.1296 17.958 37.1296 18.5001C37.1296 19.0422 36.9318 19.5036 36.5363 19.8845C36.1554 20.2654 35.7012 20.4559 35.1738 20.4559H20.9779V34.6738C20.9779 35.2012 20.7801 35.6554 20.3845 36.0363C20.0036 36.4318 19.5422 36.6296 19.0001 36.6296C18.458 36.6296 17.9966 36.4318 17.6157 36.0363C17.2348 35.6554 17.0443 35.2012 17.0443 34.6738V20.4559H2.82639C2.29899 20.4559 1.83751 20.2654 1.44196 19.8845C1.06106 19.5036 0.870605 19.0422 0.870605 18.5001Z" fill="#F3F3F3"/>
</svg>
