<svg width="86" height="86" viewBox="0 0 86 86" fill="none" xmlns="http://www.w3.org/2000/svg">
<path fill-rule="evenodd" clip-rule="evenodd" d="M39.7305 85.7203L39.7305 75.5328H45.8653L45.8653 85.7483C58.5672 84.9002 69.742 78.466 76.9601 68.8781L68.5125 63.9954L71.5799 58.6765L80.2939 63.7132C83.6128 57.6508 85.5 50.6912 85.5 43.2903C85.5 36.6234 83.9686 30.3145 81.2386 24.6971L72.3657 29.8257L69.2983 24.5068L78.1627 19.3831C71.1641 9.08478 59.7704 2.02081 46.682 0.894743L46.682 11.2655L40.5471 11.2655L40.5471 0.80616C27.4994 1.54761 16.0263 8.18068 8.74029 18.0898L17.4818 23.1424L14.4144 28.4613L5.4667 23.2895C2.28946 29.252 0.488525 36.0606 0.488525 43.2903C0.488525 49.9365 2.01046 56.2268 4.72445 61.831L13.3564 56.8417L16.4238 62.1607L7.79303 67.1492C14.8641 77.5849 26.4438 84.7102 39.7305 85.7203ZM42.9943 0.736816L43.0016 0.736817H42.987L42.9943 0.736816Z" fill="#121214"/>
</svg>
