<svg width="86" height="86" viewBox="0 0 86 86" fill="none" xmlns="http://www.w3.org/2000/svg">
<path d="M73.9481 73.0979L63.0416 70.2682L57.6072 73.3043L54.6829 83.8701C50.9805 84.8416 47.0898 85.3699 43.0736 85.3699C39.0511 85.3699 35.1542 84.8477 31.458 83.8701L28.5274 73.3043L23.093 70.2682L12.1928 73.0979C6.57939 67.7376 2.56251 61.0126 0.564697 53.6303L8.55315 45.9003V39.828L0.564697 32.0981C2.56147 24.7135 6.57842 17.9863 12.1928 12.6244L23.093 15.454L28.5274 12.4179L31.458 1.85221C35.2416 0.855682 39.146 0.353303 43.0673 0.358437C47.0898 0.358437 50.9867 0.880651 54.6829 1.85828L57.6072 12.424L63.0416 15.4601L73.9481 12.6304C79.4703 17.9133 83.5493 24.5989 85.5762 32.0981L77.5815 39.828V45.9003L85.5762 53.6303C83.5784 61.0126 79.5615 67.7376 73.9481 73.0979Z" fill="#121214"/>
</svg>
