<svg width="23" height="10" viewBox="0 0 23 10" fill="none" xmlns="http://www.w3.org/2000/svg">
<path opacity="0.5" fill-rule="evenodd" clip-rule="evenodd" d="M17.3719 9.29685C16.6963 9.29685 16.1487 8.74918 16.1487 8.07359C16.1487 7.39799 16.6963 6.85032 17.3719 6.85032L18.3507 6.85032C19.5668 6.85032 20.5526 5.8645 20.5526 4.64843C20.5526 3.43237 19.5668 2.44655 18.3507 2.44655L12.9683 2.44655C12.2321 2.44655 11.5802 2.8079 11.1805 3.36292C10.8053 3.88372 10.2942 4.40377 9.65232 4.40377C8.93133 4.40377 8.34259 3.78717 8.58161 3.10695C9.21748 1.29734 10.9414 1.0917e-05 12.9683 1.10056e-05L18.3507 1.12409e-05C20.918 1.13531e-05 22.9991 2.08118 22.9991 4.64843C22.9991 7.21569 20.918 9.29685 18.3507 9.29685L17.3719 9.29685ZM5.62723 -7.59351e-07C6.30282 -7.2982e-07 6.8505 0.547675 6.8505 1.22327C6.8505 1.89886 6.30282 2.44654 5.62723 2.44654L4.64844 2.44654C3.43237 2.44654 2.44656 3.43235 2.44656 4.64842C2.44656 5.86449 3.43237 6.8503 4.64844 6.8503L10.0308 6.8503C10.7671 6.85031 11.4189 6.48896 11.8187 5.93393C12.1938 5.41313 12.705 4.89308 13.3468 4.89308C14.0678 4.89308 14.6566 5.50969 14.4176 6.18991C13.7817 7.99951 12.0578 9.29684 10.0308 9.29684L4.64844 9.29684C2.08119 9.29684 1.87581e-05 7.21567 1.88703e-05 4.64842C1.89825e-05 2.08117 2.08119 -9.14352e-07 4.64844 -8.02134e-07L5.62723 -7.59351e-07Z" fill="#F3F3F3"/>
</svg>
