<svg width="1920" height="1085" viewBox="0 0 1920 1085" fill="none" xmlns="http://www.w3.org/2000/svg">
<mask id="mask0_436_57" style="mask-type:alpha" maskUnits="userSpaceOnUse" x="0" y="0" width="1920" height="1085">
<rect width="1920" height="1085" fill="#D9D9D9"/>
</mask>
<g mask="url(#mask0_436_57)">
<path fill-rule="evenodd" clip-rule="evenodd" d="M-323.298 725.783C-177.251 822.517 70.2667 801.681 219.782 779.999C402.258 732.644 516.673 768.868 423.493 798.138C292.555 839.269 372.66 858.242 524.094 874.386C734.96 821.441 1019.63 911.514 1213.68 972.917C1358.49 1018.73 1452.84 1048.59 1428.43 991.15C1404.14 933.978 1466.27 922.271 1527.25 910.778C1627.66 891.856 1724.97 873.516 1428.43 653.802C1269.49 536.032 1367.07 553.84 1560.75 633.487C1578.59 640.089 1596.08 646.598 1613.26 652.988C1876.43 750.926 2064.95 821.082 2305.29 773.718L2308.66 840.891V337.188L2343.01 155.279C1953.07 94.2531 1599.94 125.1 1447.39 162.137C1372.64 180.283 1281.1 191.439 1201.59 196.966C1423.5 138.752 1524.42 84.24 1379.06 104.483C1145.25 137.044 865.773 165.065 973.749 110.036C1011.33 90.8818 978.897 93.8415 934.833 97.8623C877.619 103.083 800.799 110.093 832.192 72.8073C887.762 6.80522 434.01 -14.5011 122.659 35.8439C-96.2912 71.2478 -341.671 -11.7976 -487.817 -61.2586L-487.817 -61.2588C-583.912 -93.7806 -637.104 -111.783 -611.669 -72.0453C-587.395 -34.1219 -469.866 20.1087 -342.172 71.4019L-386.533 137.417C-303.4 153.807 -165.323 175.262 -0.211622 132.069C157.896 90.7081 278.975 64.8342 376.353 58.2528C342.078 65.28 220.388 99.0269 7.82469 177.797C-172.733 244.707 -350.377 241.875 -447.396 227.989L-560.971 397.003L-323.298 421.972L-323.298 725.783ZM2308.66 1342.22C2294.75 1342.92 2280.44 1343.44 2265.73 1343.8V1358.15H542.544C575.29 1408.2 621.966 1441.54 677.728 1448.6C738.098 1456.25 781.648 1436.26 829.898 1414.12C884.987 1388.84 946.202 1360.75 1045.57 1367.76C1134.89 1374.07 1185.01 1410.42 1207.34 1455H2308.66V1342.22ZM153.384 1455C154.483 1444.99 155.71 1434.99 157.064 1425.03C129.484 1437.31 102.696 1447.38 77.5218 1455H153.384ZM-78.3645 1455C-86.0687 1448.3 -91.2092 1439.52 -93.3528 1428.52C-107.397 1356.47 -161.654 1405.46 -202.063 1441.95C-207.209 1446.59 -212.131 1451.04 -216.716 1455H-78.3645ZM-248.097 1455C-247.723 1451.6 -247.063 1447.62 -246.094 1442.99C-231.519 1373.42 -263.62 1395.08 -318.808 1455H-248.097Z" fill="#131313"/>
<path fill-rule="evenodd" clip-rule="evenodd" d="M-323.298 725.783C-177.251 822.517 70.2667 801.681 219.782 779.999C402.258 732.644 516.673 768.868 423.493 798.138C292.555 839.269 372.66 858.242 524.094 874.386C734.96 821.441 1019.63 911.514 1213.68 972.917C1358.49 1018.73 1452.84 1048.59 1428.43 991.15C1404.14 933.978 1466.27 922.271 1527.25 910.778C1627.66 891.856 1724.97 873.516 1428.43 653.802C1269.49 536.032 1367.07 553.84 1560.75 633.487C1578.59 640.089 1596.08 646.598 1613.26 652.988C1876.43 750.926 2064.95 821.082 2305.29 773.718L2308.66 840.891V337.188L2343.01 155.279C1953.07 94.2531 1599.94 125.1 1447.39 162.137C1372.64 180.283 1281.1 191.439 1201.59 196.966C1423.5 138.752 1524.42 84.24 1379.06 104.483C1145.25 137.044 865.773 165.065 973.749 110.036C1011.33 90.8818 978.897 93.8415 934.833 97.8623C877.619 103.083 800.799 110.093 832.192 72.8073C887.762 6.80522 434.01 -14.5011 122.659 35.8439C-96.2912 71.2478 -341.671 -11.7976 -487.817 -61.2586L-487.817 -61.2588C-583.912 -93.7806 -637.104 -111.783 -611.669 -72.0453C-587.395 -34.1219 -469.866 20.1087 -342.172 71.4019L-386.533 137.417C-303.4 153.807 -165.323 175.262 -0.211622 132.069C157.896 90.7081 278.975 64.8342 376.353 58.2528C342.078 65.28 220.388 99.0269 7.82469 177.797C-172.733 244.707 -350.377 241.875 -447.396 227.989L-560.971 397.003L-323.298 421.972L-323.298 725.783ZM2308.66 1342.22C2294.75 1342.92 2280.44 1343.44 2265.73 1343.8V1358.15H542.544C575.29 1408.2 621.966 1441.54 677.728 1448.6C738.098 1456.25 781.648 1436.26 829.898 1414.12C884.987 1388.84 946.202 1360.75 1045.57 1367.76C1134.89 1374.07 1185.01 1410.42 1207.34 1455H2308.66V1342.22ZM153.384 1455C154.483 1444.99 155.71 1434.99 157.064 1425.03C129.484 1437.31 102.696 1447.38 77.5218 1455H153.384ZM-78.3645 1455C-86.0687 1448.3 -91.2092 1439.52 -93.3528 1428.52C-107.397 1356.47 -161.654 1405.46 -202.063 1441.95C-207.209 1446.59 -212.131 1451.04 -216.716 1455H-78.3645ZM-248.097 1455C-247.723 1451.6 -247.063 1447.62 -246.094 1442.99C-231.519 1373.42 -263.62 1395.08 -318.808 1455H-248.097Z" fill="url(#paint0_linear_436_57)"/>
</g>
<defs>
<linearGradient id="paint0_linear_436_57" x1="861.954" y1="225.933" x2="861.954" y2="846.726" gradientUnits="userSpaceOnUse">
<stop stop-color="#4945FF"/>
<stop offset="1" stop-color="#4945FF" stop-opacity="0"/>
</linearGradient>
</defs>
</svg>
