<svg width="744" height="607" viewBox="0 0 744 607" fill="none" xmlns="http://www.w3.org/2000/svg">
<mask id="mask0_452_66" style="mask-type:alpha" maskUnits="userSpaceOnUse" x="0" y="0" width="744" height="607">
<rect width="744" height="607" fill="#D9D9D9"/>
</mask>
<g mask="url(#mask0_452_66)">
<path fill-rule="evenodd" clip-rule="evenodd" d="M-335.839 405.989C-254.159 460.088 -115.742 448.448 -32.1019 436.322C69.9982 409.815 134.027 430.081 81.896 446.456C8.65367 469.463 53.4603 480.077 138.166 489.107C256.12 459.49 415.356 509.875 523.907 544.222C604.906 569.852 657.684 586.552 644.034 554.422C630.447 522.441 665.197 515.892 699.31 509.463C755.474 498.879 809.91 488.62 644.034 365.717C555.089 299.815 609.747 309.808 718.17 354.404C728.056 358.062 737.748 361.669 747.265 365.21L747.324 365.232L747.418 365.267C894.63 420.051 1000.08 459.295 1134.52 432.801L1136.41 470.439V188.618L1155.63 86.8637C937.505 52.7272 739.972 69.9824 654.639 90.6995C612.827 100.851 561.62 107.091 517.144 110.183C641.271 77.6191 697.725 47.1266 616.415 58.4501C485.628 76.6639 329.294 92.3381 389.693 61.5561C410.716 50.842 392.573 52.4975 367.924 54.7467L367.924 54.7468C335.92 57.6671 292.949 61.5881 310.51 40.7314C341.594 3.81155 87.7768 -8.10672 -86.3856 20.0551C-208.861 39.8591 -346.12 -6.59453 -427.871 -34.2618C-481.623 -52.4537 -511.378 -62.5235 -497.15 -40.2955C-483.572 -19.0818 -417.827 11.2539 -346.397 39.9465L-371.21 76.871C-324.707 86.0394 -247.471 98.0392 -155.115 73.8788C-66.6734 50.7426 1.05531 36.2694 55.5263 32.588C36.3538 36.5188 -31.7169 55.396 -150.619 99.458C-251.617 136.885 -350.984 135.302 -405.255 127.535L-468.787 222.078L-335.839 236.045V405.989ZM1136.41 750.804C1128.63 751.19 1120.63 751.484 1112.4 751.686V759.717H148.491C166.808 787.713 192.916 806.36 224.106 810.311C257.876 814.587 282.237 803.408 309.226 791.022C340.042 776.881 374.284 761.167 429.87 765.09C479.835 768.616 507.874 788.956 520.361 813.895H1136.41V750.804ZM-69.1985 813.895C-68.5832 808.291 -67.8967 802.7 -67.1394 797.124C-82.5731 803.995 -97.5639 809.634 -111.651 813.895H-69.1985ZM-198.824 813.895C-203.137 810.145 -206.015 805.231 -207.214 799.077C-215.071 758.774 -245.42 786.177 -268.024 806.586C-270.906 809.188 -273.661 811.675 -276.228 813.895H-198.824ZM-293.775 813.895C-293.566 811.994 -293.197 809.763 -292.654 807.173C-284.501 768.251 -302.459 780.373 -333.334 813.895H-293.775Z" fill="#131313"/>
<path fill-rule="evenodd" clip-rule="evenodd" d="M-335.839 405.989C-254.159 460.088 -115.742 448.448 -32.1019 436.322C69.9982 409.815 134.027 430.081 81.896 446.456C8.65367 469.463 53.4603 480.077 138.166 489.107C256.12 459.49 415.356 509.875 523.907 544.222C604.906 569.852 657.684 586.552 644.034 554.422C630.447 522.441 665.197 515.892 699.31 509.463C755.474 498.879 809.91 488.62 644.034 365.717C555.089 299.815 609.747 309.808 718.17 354.404C728.056 358.062 737.748 361.669 747.265 365.21L747.324 365.232L747.418 365.267C894.63 420.051 1000.08 459.295 1134.52 432.801L1136.41 470.439V188.618L1155.63 86.8637C937.505 52.7272 739.972 69.9824 654.639 90.6995C612.827 100.851 561.62 107.091 517.144 110.183C641.271 77.6191 697.725 47.1266 616.415 58.4501C485.628 76.6639 329.294 92.3381 389.693 61.5561C410.716 50.842 392.573 52.4975 367.924 54.7467L367.924 54.7468C335.92 57.6671 292.949 61.5881 310.51 40.7314C341.594 3.81155 87.7768 -8.10672 -86.3856 20.0551C-208.861 39.8591 -346.12 -6.59453 -427.871 -34.2618C-481.623 -52.4537 -511.378 -62.5235 -497.15 -40.2955C-483.572 -19.0818 -417.827 11.2539 -346.397 39.9465L-371.21 76.871C-324.707 86.0394 -247.471 98.0392 -155.115 73.8788C-66.6734 50.7426 1.05531 36.2694 55.5263 32.588C36.3538 36.5188 -31.7169 55.396 -150.619 99.458C-251.617 136.885 -350.984 135.302 -405.255 127.535L-468.787 222.078L-335.839 236.045V405.989ZM1136.41 750.804C1128.63 751.19 1120.63 751.484 1112.4 751.686V759.717H148.491C166.808 787.713 192.916 806.36 224.106 810.311C257.876 814.587 282.237 803.408 309.226 791.022C340.042 776.881 374.284 761.167 429.87 765.09C479.835 768.616 507.874 788.956 520.361 813.895H1136.41V750.804ZM-69.1985 813.895C-68.5832 808.291 -67.8967 802.7 -67.1394 797.124C-82.5731 803.995 -97.5639 809.634 -111.651 813.895H-69.1985ZM-198.824 813.895C-203.137 810.145 -206.015 805.231 -207.214 799.077C-215.071 758.774 -245.42 786.177 -268.024 806.586C-270.906 809.188 -273.661 811.675 -276.228 813.895H-198.824ZM-293.775 813.895C-293.566 811.994 -293.197 809.763 -292.654 807.173C-284.501 768.251 -302.459 780.373 -333.334 813.895H-293.775Z" fill="url(#paint0_linear_452_66)"/>
</g>
<defs>
<linearGradient id="paint0_linear_452_66" x1="327.16" y1="126.386" x2="327.16" y2="473.641" gradientUnits="userSpaceOnUse">
<stop stop-color="#4945FF"/>
<stop offset="1" stop-color="#4945FF" stop-opacity="0"/>
</linearGradient>
</defs>
</svg>
