<svg width="99" height="100" viewBox="0 0 99 100" fill="none" xmlns="http://www.w3.org/2000/svg">
<path d="M83.1484 99.9002L87.8284 80.9102H98.5384L91.2484 99.9002H83.1484Z" fill="#E7E6FF"/>
<path d="M23.7609 44.5623C18.1421 53.6124 19.99 56.421 23.7609 51.4277C35.3091 36.1364 44.3555 21.1576 62.4553 4.30618C80.5551 -12.5453 41.859 35.8247 34.9936 51.4277C28.1281 67.0308 51.8451 25.2145 71.1931 4.30618C90.5412 -16.6022 51.8451 44.5623 47.1641 60.79C42.4831 77.0176 73.0655 26.4628 85.236 19.9092C97.4066 13.3555 72.4414 44.5623 62.4553 60.79C52.4692 77.0176 73.3776 60.79 92.1015 44.5623C110.825 28.3347 70.569 79.2018 51.8451 89.4999C33.1212 99.7981 9.09324 96.0533 2.85194 79.2018C-3.38936 62.3503 5.66052 44.5623 30.9378 19.9092C56.2151 -4.74397 28.1839 37.4385 23.7609 44.5623Z" fill="#E7E6FF"/>
</svg>
