<svg width="509" height="156" viewBox="0 0 509 156" fill="none" xmlns="http://www.w3.org/2000/svg">
<path d="M10.8277 153.461L13.4902 9.68331H33.1931L58.5761 126.303L84.1365 9.68331H103.662L106.324 153.461H90.1716L88.5741 49.089L64.2562 153.461H52.896L28.7555 49.089L27.158 153.461H10.8277ZM156.586 155.058C146.172 155.058 138.184 152.988 132.623 148.846C127.061 144.704 123.274 138.906 121.262 131.451C119.251 123.877 118.245 115.061 118.245 105.003V9.68331H137.415V105.89C137.415 112.044 137.829 117.664 138.658 122.753C139.486 127.841 141.261 131.865 143.983 134.823C146.823 137.781 151.024 139.261 156.586 139.261C162.266 139.261 166.467 137.781 169.188 134.823C171.91 131.865 173.685 127.841 174.513 122.753C175.342 117.664 175.756 112.044 175.756 105.89V9.68331H194.749V105.003C194.749 115.061 193.743 123.877 191.731 131.451C189.72 138.906 185.933 144.704 180.371 148.846C174.928 152.988 166.999 155.058 156.586 155.058ZM240.894 155.058C232.611 155.058 225.688 153.283 220.126 149.733C214.683 146.183 210.541 141.272 207.701 135.001C204.861 128.729 203.204 121.451 202.731 113.168L220.481 108.375C220.836 113.464 221.605 118.374 222.789 123.108C224.09 127.841 226.161 131.746 229.001 134.823C231.841 137.781 235.806 139.261 240.894 139.261C246.101 139.261 250.006 137.841 252.609 135.001C255.331 132.042 256.692 127.841 256.692 122.398C256.692 115.889 255.213 110.683 252.254 106.778C249.296 102.754 245.568 98.7308 241.072 94.7074L216.931 73.407C212.198 69.2652 208.707 64.7685 206.458 59.9167C204.21 54.9466 203.086 48.8524 203.086 41.6339C203.086 31.102 206.103 22.9369 212.139 17.1385C218.174 11.34 226.398 8.44079 236.812 8.44079C242.492 8.44079 247.462 9.20997 251.722 10.7483C256.1 12.1684 259.709 14.4167 262.549 17.4935C265.508 20.5702 267.815 24.4752 269.472 29.2087C271.247 33.8238 272.43 39.2672 273.022 45.539L255.982 50.1541C255.627 45.4206 254.917 41.1014 253.852 37.1963C252.787 33.1729 250.893 29.9778 248.172 27.6111C245.568 25.1261 241.782 23.8836 236.812 23.8836C231.841 23.8836 227.936 25.2444 225.096 27.9661C222.375 30.5695 221.014 34.4746 221.014 39.6814C221.014 44.0598 221.724 47.669 223.144 50.5091C224.682 53.3491 227.108 56.2483 230.421 59.2067L254.739 80.5071C260.183 85.2405 264.975 90.9206 269.117 97.5474C273.259 104.056 275.33 111.807 275.33 120.8C275.33 127.9 273.851 134.054 270.892 139.261C267.934 144.349 263.851 148.254 258.644 150.976C253.556 153.698 247.639 155.058 240.894 155.058ZM283.079 153.461V9.68331H302.782V153.461H283.079ZM309.358 153.461L339.888 9.68331H359.236L389.944 153.461H370.951L364.384 117.25H335.096L328.173 153.461H309.358ZM337.758 102.873H361.721L349.651 38.0838L337.758 102.873ZM395.657 153.461V9.68331H415.715V139.083H452.459V153.461H395.657Z" fill="#E7E6FF"/>
<path d="M479.192 53.6916C465.045 53.6916 453.84 42.6121 453.84 28.528C453.84 14.4439 465.045 3.30176 479.192 3.30176C493.401 3.30176 504.606 14.3813 504.606 28.528C504.606 42.6121 493.401 53.6916 479.192 53.6916ZM479.192 49.4977C490.772 49.4977 499.911 40.2335 499.911 28.528C499.911 16.8225 490.772 7.5583 479.192 7.5583C467.674 7.5583 458.535 16.8225 458.535 28.528C458.535 40.2335 467.674 49.4977 479.192 49.4977ZM480.193 42.6121C472.557 42.6121 466.485 36.4151 466.485 28.528C466.485 20.5783 472.557 14.4439 480.193 14.4439C484.825 14.4439 487.58 16.5095 488.519 17.3859V23.8959C486.828 21.6424 484.638 19.7019 480.757 19.7019C475.686 19.7019 472.056 23.4577 472.056 28.528C472.056 33.5983 475.749 37.4166 480.757 37.4166C484.575 37.4166 486.828 35.4136 488.519 33.1601V39.7327C487.517 40.6716 484.763 42.6121 480.193 42.6121Z" fill="#E7E6FF"/>
</svg>
