<svg width="895" height="298" viewBox="0 0 895 298" fill="none" xmlns="http://www.w3.org/2000/svg">
<path d="M779.719 294V3.02637H820.311V264.902H894.671V294H779.719Z" fill="#E7E6FF"/>
<path d="M605.07 294L666.857 3.02637H706.013L768.159 294H729.722L716.43 220.717H657.158L643.148 294H605.07ZM662.546 191.62H711.042L686.615 60.5026L662.546 191.62Z" fill="#E7E6FF"/>
<path d="M551.887 294V3.02637H591.761V294H551.887Z" fill="#E7E6FF"/>
<path d="M466.515 297.233C449.751 297.233 435.741 293.641 424.485 286.457C413.469 279.272 405.087 269.334 399.34 256.641C393.592 243.948 390.239 229.22 389.281 212.456L425.204 202.757C425.922 213.055 427.479 222.993 429.874 232.573C432.508 242.152 436.699 250.055 442.447 256.282C448.194 262.269 456.217 265.262 466.515 265.262C477.052 265.262 484.955 262.389 490.224 256.641C495.732 250.654 498.486 242.152 498.486 231.136C498.486 217.964 495.492 207.427 489.505 199.524C483.518 191.382 475.974 183.239 466.874 175.097L418.019 131.989C408.44 123.608 401.375 114.507 396.825 104.688C392.275 94.6299 390 82.2965 390 67.688C390 46.3739 396.107 29.8495 408.32 18.1148C420.534 6.38006 437.178 0.512695 458.253 0.512695C469.748 0.512695 479.806 2.06934 488.428 5.18264C497.289 8.05644 504.593 12.6066 510.34 18.8332C516.328 25.0598 520.997 32.9628 524.35 42.5421C527.943 51.882 530.337 62.8983 531.535 75.591L497.049 84.9308C496.331 75.3515 494.894 66.6103 492.738 58.7073C490.583 50.5649 486.751 44.0988 481.243 39.3091C475.974 34.28 468.311 31.7654 458.253 31.7654C448.194 31.7654 440.291 34.5194 434.544 40.0276C429.036 45.2962 426.282 53.1992 426.282 63.7365C426.282 72.5974 427.718 79.9017 430.592 85.6493C433.706 91.3969 438.615 97.2643 445.321 103.251L494.535 146.359C505.551 155.938 515.25 167.433 523.632 180.844C532.014 194.016 536.205 209.702 536.205 227.903C536.205 242.272 533.211 254.725 527.224 265.262C521.237 275.56 512.975 283.463 502.437 288.971C492.14 294.479 480.165 297.233 466.515 297.233Z" fill="#E7E6FF"/>
<path d="M295.894 297.233C274.819 297.233 258.654 293.042 247.398 284.66C236.142 276.278 228.479 264.543 224.408 249.456C220.336 234.129 218.301 216.287 218.301 195.931V3.02637H257.097V197.727C257.097 210.18 257.935 221.556 259.612 231.853C261.288 242.151 264.88 250.294 270.389 256.281C276.136 262.268 284.638 265.261 295.894 265.261C307.389 265.261 315.891 262.268 321.399 256.281C326.907 250.294 330.499 242.151 332.175 231.853C333.852 221.556 334.69 210.18 334.69 197.727V3.02637H373.127V195.931C373.127 216.287 371.092 234.129 367.02 249.456C362.949 264.543 355.286 276.278 344.03 284.66C333.014 293.042 316.968 297.233 295.894 297.233Z" fill="#E7E6FF"/>
<path d="M0.914062 294L6.30245 3.02637H46.1766L97.5459 239.038L149.274 3.02637H188.789L194.178 294H161.488L158.255 82.7746L109.041 294H86.0507L37.1959 82.7746L33.9629 294H0.914062Z" fill="#E7E6FF"/>
</svg>
